<?xml version="1.0" encoding="UTF-8"?>
<!DOCTYPE svg PUBLIC "-//W3C//DTD SVG 1.1//EN" "http://www.w3.org/Graphics/SVG/1.1/DTD/svg11.dtd">
<svg xmlns="http://www.w3.org/2000/svg" version="1.1" width="800px" height="460px" style="shape-rendering:geometricPrecision; text-rendering:geometricPrecision; image-rendering:optimizeQuality; fill-rule:evenodd; clip-rule:evenodd" xmlns:xlink="http://www.w3.org/1999/xlink">
<g><path style="opacity:0.737" fill="#090c0a" d="M 364.5,10.5 C 402.835,10.3333 441.168,10.5 479.5,11C 483.469,12.9844 487.469,14.9844 491.5,17C 495.333,19.5 498.5,22.6667 501,26.5C 511.415,44.3328 522.082,61.9994 533,79.5C 539.58,74.7919 546.413,70.4586 553.5,66.5C 554.583,67.365 554.749,68.365 554,69.5C 540.727,96.3781 527.727,123.378 515,150.5C 484.233,151.828 453.4,151.828 422.5,150.5C 431.463,144.346 440.463,138.179 449.5,132C 426.608,98.7727 404.108,65.2727 382,31.5C 376.699,25.1979 371.032,19.1979 365,13.5C 364.517,12.552 364.351,11.552 364.5,10.5 Z"/></g>
<g><path style="opacity:1" fill="#0a8840" d="M 477.5,13.5 C 465.829,13.3335 454.162,13.5001 442.5,14C 423.862,20.9346 405.195,27.768 386.5,34.5C 381.148,26.6365 374.814,19.4699 367.5,13C 404.336,12.1689 441.002,12.3356 477.5,13.5 Z"/></g>
<g><path style="opacity:1" fill="#289958" d="M 477.5,13.5 C 479.698,13.8751 481.698,14.5418 483.5,15.5C 483.062,15.4346 482.728,15.6012 482.5,16C 485.167,16.6667 485.167,17.3333 482.5,18C 453.666,27.8036 425.499,37.9703 398,48.5C 396.779,47.7282 395.779,46.7282 395,45.5C 394.601,45.7284 394.435,46.0618 394.5,46.5C 391.474,42.795 388.808,38.795 386.5,34.5C 405.195,27.768 423.862,20.9346 442.5,14C 454.162,13.5001 465.829,13.3335 477.5,13.5 Z"/></g>
<g><path style="opacity:1" fill="#5ab17f" d="M 498.5,26.5 C 501.167,30.8333 503.833,35.1667 506.5,39.5C 502.313,39.3947 498.313,40.228 494.5,42C 467.138,52.0531 440.138,61.8865 413.5,71.5C 412.522,71.0233 411.689,70.3567 411,69.5C 410.601,69.7284 410.435,70.0618 410.5,70.5C 408.265,67.7089 406.265,64.7089 404.5,61.5C 405.627,60.8783 406.627,60.045 407.5,59C 438.053,48.6173 468.386,37.784 498.5,26.5 Z"/></g>
<g><path style="opacity:1" fill="#41a56c" d="M 483.5,15.5 C 489.752,17.4593 494.752,21.1259 498.5,26.5C 468.386,37.784 438.053,48.6173 407.5,59C 406.627,60.045 405.627,60.8783 404.5,61.5C 400.932,56.7089 397.598,51.7089 394.5,46.5C 394.435,46.0618 394.601,45.7284 395,45.5C 395.779,46.7282 396.779,47.7282 398,48.5C 425.499,37.9703 453.666,27.8036 482.5,18C 485.167,17.3333 485.167,16.6667 482.5,16C 482.728,15.6012 483.062,15.4346 483.5,15.5 Z"/></g>
<g><path style="opacity:1" fill="#73bd93" d="M 506.5,39.5 C 508.5,42.8333 510.5,46.1667 512.5,49.5C 481.911,60.7654 451.411,72.0987 421,83.5C 420.162,82.001 419.329,81.6676 418.5,82.5C 415.474,78.795 412.808,74.795 410.5,70.5C 410.435,70.0618 410.601,69.7284 411,69.5C 411.689,70.3567 412.522,71.0233 413.5,71.5C 440.138,61.8865 467.138,52.0531 494.5,42C 498.313,40.228 502.313,39.3947 506.5,39.5 Z"/></g>
<g><path style="opacity:1" fill="#8cc8a6" d="M 512.5,49.5 C 514.833,53.5 517.167,57.5 519.5,61.5C 490.695,72.5859 461.195,83.2526 431,93.5C 429.405,94.3557 428.572,95.6891 428.5,97.5C 424.932,92.7089 421.598,87.7089 418.5,82.5C 419.329,81.6676 420.162,82.001 421,83.5C 451.411,72.0987 481.911,60.7654 512.5,49.5 Z"/></g>
<g><path style="opacity:1" fill="#9ed1b4" d="M 519.5,61.5 C 521.153,64.1305 522.819,66.7972 524.5,69.5C 494.659,79.6179 464.659,90.1179 434.5,101C 433.244,101.417 432.577,102.25 432.5,103.5C 430.808,101.795 429.475,99.7952 428.5,97.5C 428.572,95.6891 429.405,94.3557 431,93.5C 461.195,83.2526 490.695,72.5859 519.5,61.5 Z"/></g>
<g><path style="opacity:1" fill="#add8bf" d="M 524.5,69.5 C 525.752,71.0009 526.752,72.6675 527.5,74.5C 526.347,75.3132 526.347,76.3132 527.5,77.5C 498.12,88.5975 468.62,99.5975 439,110.5C 438.162,109.001 437.329,108.668 436.5,109.5C 434.808,107.795 433.475,105.795 432.5,103.5C 432.577,102.25 433.244,101.417 434.5,101C 464.659,90.1179 494.659,79.6179 524.5,69.5 Z"/></g>
<g><path style="opacity:1" fill="#bfe0cd" d="M 544.5,83.5 C 544.265,82.9033 543.765,82.5699 543,82.5C 508.97,94.4984 475.47,106.498 442.5,118.5C 440.265,115.709 438.265,112.709 436.5,109.5C 437.329,108.668 438.162,109.001 439,110.5C 468.62,99.5975 498.12,88.5975 527.5,77.5C 526.347,76.3132 526.347,75.3132 527.5,74.5C 528.924,77.0179 530.591,79.3512 532.5,81.5C 538.692,77.4111 545.026,73.9111 551.5,71C 549.254,75.2651 546.92,79.4318 544.5,83.5 Z"/></g>
<g><path style="opacity:1" fill="#d6ebdf" d="M 544.5,83.5 C 543.008,87.8178 541.008,91.8178 538.5,95.5C 537.03,96.2246 535.864,97.8912 535,100.5C 534.667,100.167 534.333,99.8333 534,99.5C 505.621,109.66 477.788,119.994 450.5,130.5C 447.474,126.795 444.808,122.795 442.5,118.5C 475.47,106.498 508.97,94.4984 543,82.5C 543.765,82.5699 544.265,82.9033 544.5,83.5 Z"/></g>
<g><path style="opacity:1" fill="#fdfdfd" d="M 530.5,112.5 C 525.254,125.258 519.254,137.592 512.5,149.5C 483.995,149.831 455.662,149.498 427.5,148.5C 428.391,147.89 429.391,147.557 430.5,147.5C 435.618,148.904 440.618,148.404 445.5,146C 472.562,136.038 499.562,126.205 526.5,116.5C 527.584,115.335 528.417,114.002 529,112.5C 529.69,111.262 530.19,111.262 530.5,112.5 Z"/></g>
<g><path style="opacity:1" fill="#f0f7f3" d="M 538.5,95.5 C 536.589,101.587 533.923,107.253 530.5,112.5C 530.19,111.262 529.69,111.262 529,112.5C 528.417,114.002 527.584,115.335 526.5,116.5C 499.562,126.205 472.562,136.038 445.5,146C 440.618,148.404 435.618,148.904 430.5,147.5C 436.928,142.775 443.595,138.275 450.5,134C 451.684,132.855 451.684,131.688 450.5,130.5C 477.788,119.994 505.621,109.66 534,99.5C 534.333,99.8333 534.667,100.167 535,100.5C 535.864,97.8912 537.03,96.2246 538.5,95.5 Z"/></g>
<g><path style="opacity:1" fill="#7f8080" d="M 427.5,148.5 C 455.662,149.498 483.995,149.831 512.5,149.5C 483.997,150.83 455.331,150.83 426.5,149.5C 426.624,148.893 426.957,148.56 427.5,148.5 Z"/></g>
<g><path style="opacity:1" fill="#eae9e9" d="M 235.5,162.5 C 277.168,162.333 318.835,162.5 360.5,163C 363.645,165.068 364.145,167.568 362,170.5C 361.333,175.167 361.333,179.833 362,184.5C 367.333,201.167 372.667,217.833 378,234.5C 385.531,211.572 392.865,188.572 400,165.5C 400.833,164.667 401.667,163.833 402.5,163C 425.833,162.333 449.167,162.333 472.5,163C 473.701,163.903 474.535,165.069 475,166.5C 480.569,183.71 486.402,200.71 492.5,217.5C 493.197,223.554 495.03,229.221 498,234.5C 500.809,226.597 503.309,218.597 505.5,210.5C 505.5,210.167 505.5,209.833 505.5,209.5C 508.4,201.302 511.234,192.968 514,184.5C 514.95,178.674 514.45,173.007 512.5,167.5C 512.876,165.617 513.876,164.117 515.5,163C 580.5,162.333 645.5,162.333 710.5,163C 711.691,163.698 712.691,164.531 713.5,165.5C 715.445,174.665 717.445,183.832 719.5,193C 719.357,195.151 718.357,196.818 716.5,198C 709.857,197.241 703.19,196.241 696.5,195C 671.169,194.5 645.836,194.333 620.5,194.5C 620.223,197.448 620.556,200.281 621.5,203C 643.833,203.333 666.167,203.667 688.5,204C 714.962,207.662 725.962,222.829 721.5,249.5C 721.333,256.833 721.167,264.167 721,271.5C 719.204,288.297 710.037,298.463 693.5,302C 690.207,302.826 686.874,303.326 683.5,303.5C 640.832,303.667 598.165,303.5 555.5,303C 554.667,302.167 553.833,301.333 553,300.5C 551.492,292.136 549.826,283.802 548,275.5C 546.5,269 549,266.5 555.5,268C 558.363,269.399 561.363,270.399 564.5,271C 584.831,271.5 605.164,271.667 625.5,271.5C 632.508,271.666 639.508,271.5 646.5,271C 649.167,268 649.167,265 646.5,262C 623.5,261.667 600.5,261.333 577.5,261C 559.262,260.589 549.262,251.422 547.5,233.5C 547.832,224.475 547.498,215.475 546.5,206.5C 537.91,230.938 529.91,255.605 522.5,280.5C 520.243,287.44 518.076,294.44 516,301.5C 515.184,302.823 514.017,303.489 512.5,303.5C 490.833,303.5 469.167,303.5 447.5,303.5C 445.827,302.657 444.66,301.324 444,299.5C 436.198,275.759 428.198,252.092 420,228.5C 412.877,247.869 406.544,267.536 401,287.5C 399.211,292.88 397.044,298.047 394.5,303C 372.167,303.667 349.833,303.667 327.5,303C 326.299,302.097 325.465,300.931 325,299.5C 312.198,260.759 299.198,222.093 286,183.5C 283.994,179.487 281.494,175.82 278.5,172.5C 276.031,176.09 275.031,180.09 275.5,184.5C 274.502,210.995 274.169,237.661 274.5,264.5C 274.434,285.213 264.434,297.879 244.5,302.5C 206.517,303.463 168.517,303.796 130.5,303.5C 103.926,304.072 88.4259,291.406 84,265.5C 83.6667,236.5 83.3333,207.5 83,178.5C 82.1939,175.554 80.8605,172.888 79,170.5C 77.9595,167.364 78.7928,164.864 81.5,163C 108.167,162.333 134.833,162.333 161.5,163C 163.124,164.117 164.124,165.617 164.5,167.5C 162.802,170.712 161.302,174.046 160,177.5C 159.333,208.167 159.333,238.833 160,269.5C 160.75,270.126 161.584,270.626 162.5,271C 186.167,271.667 209.833,271.667 233.5,271C 234.667,270.5 235.5,269.667 236,268.5C 236.667,238.833 236.667,209.167 236,179.5C 234.746,175.34 233.246,171.34 231.5,167.5C 231.355,164.646 232.688,162.979 235.5,162.5 Z M 291.5,206.5 C 286.774,198.724 282.274,190.724 278,182.5C 277.516,180.087 277.85,177.754 279,175.5C 285.026,185.076 289.192,195.409 291.5,206.5 Z M 626.5,263.5 C 633.167,263.5 639.833,263.5 646.5,263.5C 646.5,265.5 646.5,267.5 646.5,269.5C 640.203,270.32 633.869,270.653 627.5,270.5C 627.552,268.097 627.219,265.764 626.5,263.5 Z"/></g>
<g><path style="opacity:1" fill="#1d1a1a" d="M 344.5,160.5 C 350.593,160.139 356.593,160.639 362.5,162C 363.46,163.419 364.293,164.919 365,166.5C 364.529,169.823 363.695,173.157 362.5,176.5C 366.957,194.704 372.124,212.704 378,230.5C 384.87,208.058 392.036,185.724 399.5,163.5C 400.665,162.416 401.998,161.583 403.5,161C 426.921,160.021 450.255,160.354 473.5,162C 474.333,162.833 475.167,163.667 476,164.5C 481.403,180.876 486.903,197.209 492.5,213.5C 497.467,211.107 501.967,208.107 506,204.5C 508.898,195.738 511.398,186.904 513.5,178C 512.519,174.002 511.685,169.836 511,165.5C 511.833,163.333 513.333,161.833 515.5,161C 580.5,160.333 645.5,160.333 710.5,161C 712.324,161.66 713.657,162.827 714.5,164.5C 713.833,164.5 713.5,164.833 713.5,165.5C 712.691,164.531 711.691,163.698 710.5,163C 645.5,162.333 580.5,162.333 515.5,163C 513.876,164.117 512.876,165.617 512.5,167.5C 514.45,173.007 514.95,178.674 514,184.5C 511.234,192.968 508.4,201.302 505.5,209.5C 505.44,208.957 505.107,208.624 504.5,208.5C 501.995,210.253 499.329,211.753 496.5,213C 494.365,213.876 493.031,215.376 492.5,217.5C 486.402,200.71 480.569,183.71 475,166.5C 474.535,165.069 473.701,163.903 472.5,163C 449.167,162.333 425.833,162.333 402.5,163C 401.667,163.833 400.833,164.667 400,165.5C 392.865,188.572 385.531,211.572 378,234.5C 372.667,217.833 367.333,201.167 362,184.5C 361.333,179.833 361.333,175.167 362,170.5C 364.145,167.568 363.645,165.068 360.5,163C 318.835,162.5 277.168,162.333 235.5,162.5C 268.996,161.502 302.663,161.168 336.5,161.5C 338.5,161.5 340.5,161.5 342.5,161.5C 343.492,161.672 344.158,161.338 344.5,160.5 Z"/></g>
<g><path style="opacity:1" fill="#1e1a1a" d="M 82.5,165.5 C 108.5,165.5 134.5,165.5 160.5,165.5C 159.027,170.463 157.527,175.463 156,180.5C 155.333,209.833 155.333,239.167 156,268.5C 157.587,271.756 160.087,273.923 163.5,275C 186.5,275.667 209.5,275.667 232.5,275C 235.034,274.484 237.2,273.317 239,271.5C 239.667,240.5 239.667,209.5 239,178.5C 237.592,174.391 236.259,170.391 235,166.5C 248.754,165.51 262.588,165.177 276.5,165.5C 275.027,170.463 273.527,175.463 272,180.5C 271.667,209.833 271.333,239.167 271,268.5C 268.878,286.622 258.711,296.789 240.5,299C 219.361,300.119 198.195,300.619 177,300.5C 158.5,300.333 140,300.167 121.5,300C 102.977,297.806 91.8101,287.64 88,269.5C 87.6667,240.5 87.3333,211.5 87,182.5C 86.2468,177.071 84.4135,172.071 81.5,167.5C 81.8627,166.817 82.1961,166.15 82.5,165.5 Z"/></g>
<g><path style="opacity:1" fill="#f8f5f4" d="M 269.5,203.5 C 260.5,203.5 251.5,203.5 242.5,203.5C 242.824,196.646 242.491,189.979 241.5,183.5C 241.452,177.807 239.785,172.64 236.5,168C 249.18,167.167 261.846,167.334 274.5,168.5C 272.309,172.24 270.809,176.24 270,180.5C 269.5,188.159 269.334,195.826 269.5,203.5 Z"/></g>
<g><path style="opacity:0.612" fill="#1f1d1d" d="M 447.5,303.5 C 447.833,304.167 448.167,304.833 448.5,305.5C 442.903,314.363 437.57,323.363 432.5,332.5C 431.508,332.672 430.842,332.338 430.5,331.5C 435.822,322.861 441.156,314.195 446.5,305.5C 445.24,304.618 444.074,303.618 443,302.5C 435.326,279.478 427.659,256.478 420,233.5C 412.802,255.428 405.802,277.428 399,299.5C 398.315,302.057 396.815,303.891 394.5,305C 371.412,305.979 348.412,305.645 325.5,304C 318.356,285.406 311.689,266.572 305.5,247.5C 298.833,243.833 292.167,240.167 285.5,236.5C 282.577,241.418 279.744,246.418 277,251.5C 277.999,264.513 275.666,276.846 270,288.5C 264.54,295.32 257.706,300.32 249.5,303.5C 244.791,312.918 240.125,322.251 235.5,331.5C 234.609,332.11 233.609,332.443 232.5,332.5C 233.11,331.609 233.443,330.609 233.5,329.5C 238.138,320.895 242.805,312.228 247.5,303.5C 246.675,302.614 245.675,302.281 244.5,302.5C 264.434,297.879 274.434,285.213 274.5,264.5C 275.488,259.36 275.821,254.026 275.5,248.5C 276.492,248.672 277.158,248.338 277.5,247.5C 279.3,242.568 281.633,237.901 284.5,233.5C 291.367,237.6 298.367,241.1 305.5,244C 303.141,237.925 300.975,231.759 299,225.5C 292.075,211.981 284.909,198.647 277.5,185.5C 277.158,184.662 276.492,184.328 275.5,184.5C 275.031,180.09 276.031,176.09 278.5,172.5C 281.494,175.82 283.994,179.487 286,183.5C 299.198,222.093 312.198,260.759 325,299.5C 325.465,300.931 326.299,302.097 327.5,303C 349.833,303.667 372.167,303.667 394.5,303C 397.044,298.047 399.211,292.88 401,287.5C 406.544,267.536 412.877,247.869 420,228.5C 428.198,252.092 436.198,275.759 444,299.5C 444.66,301.324 445.827,302.657 447.5,303.5 Z M 291.5,206.5 C 289.192,195.409 285.026,185.076 279,175.5C 277.85,177.754 277.516,180.087 278,182.5C 282.274,190.724 286.774,198.724 291.5,206.5 Z M 430.5,331.5 C 408.833,331.5 387.167,331.5 365.5,331.5C 365.5,325.833 365.5,320.167 365.5,314.5C 326.832,314.333 288.165,314.5 249.5,315C 246.615,320.607 243.615,326.107 240.5,331.5C 238.833,331.5 237.167,331.5 235.5,331.5C 240.125,322.251 244.791,312.918 249.5,303.5C 257.706,300.32 264.54,295.32 270,288.5C 275.666,276.846 277.999,264.513 277,251.5C 279.744,246.418 282.577,241.418 285.5,236.5C 292.167,240.167 298.833,243.833 305.5,247.5C 311.689,266.572 318.356,285.406 325.5,304C 348.412,305.645 371.412,305.979 394.5,305C 396.815,303.891 398.315,302.057 399,299.5C 405.802,277.428 412.802,255.428 420,233.5C 427.659,256.478 435.326,279.478 443,302.5C 444.074,303.618 445.24,304.618 446.5,305.5C 441.156,314.195 435.822,322.861 430.5,331.5 Z"/></g>
<g><path style="opacity:1" fill="#f4f8f6" d="M 277.5,185.5 C 284.909,198.647 292.075,211.981 299,225.5C 300.975,231.759 303.141,237.925 305.5,244C 298.367,241.1 291.367,237.6 284.5,233.5C 281.633,237.901 279.3,242.568 277.5,247.5C 276.503,227.34 276.17,207.007 276.5,186.5C 276.5,185.833 276.833,185.5 277.5,185.5 Z"/></g>
<g><path style="opacity:1" fill="#484746" d="M 276.5,186.5 C 276.17,207.007 276.503,227.34 277.5,247.5C 277.158,248.338 276.492,248.672 275.5,248.5C 275.169,227.66 275.503,206.993 276.5,186.5 Z"/></g>
<g><path style="opacity:1" fill="#726e70" d="M 275.5,184.5 C 276.492,184.328 277.158,184.662 277.5,185.5C 276.833,185.5 276.5,185.833 276.5,186.5C 275.503,206.993 275.169,227.66 275.5,248.5C 275.821,254.026 275.488,259.36 274.5,264.5C 274.169,237.661 274.502,210.995 275.5,184.5 Z"/></g>
<g><path style="opacity:0.133" fill="#181717" d="M 714.5,164.5 C 717.949,175.242 719.782,186.242 720,197.5C 719.097,198.701 717.931,199.535 716.5,200C 710.813,199.5 705.146,198.5 699.5,197C 673.502,196.5 647.502,196.333 621.5,196.5C 621.286,198.144 621.62,199.644 622.5,201C 646.536,201.061 670.536,201.728 694.5,203C 711.184,206.015 720.684,215.849 723,232.5C 723.832,247.53 723.499,262.53 722,277.5C 716.799,294.374 705.299,303.54 687.5,305C 661.833,305.333 636.167,305.667 610.5,306C 603.698,312.162 595.698,315.828 586.5,317C 573.16,317.446 559.993,317.946 547,318.5C 545.236,318.456 543.569,318.122 542,317.5C 535.833,306.5 529.667,295.5 523.5,284.5C 521.771,290.187 519.938,295.853 518,301.5C 516.833,302.667 515.667,303.833 514.5,305C 495.17,305.5 475.836,305.667 456.5,305.5C 456.5,312.167 456.5,318.833 456.5,325.5C 498.165,324.383 539.832,323.217 581.5,322C 589.011,321.331 596.344,319.831 603.5,317.5C 604.583,318.365 604.749,319.365 604,320.5C 601.607,324.054 599.44,327.72 597.5,331.5C 596.609,332.11 595.609,332.443 594.5,332.5C 596.697,328.611 599.03,324.778 601.5,321C 594.2,321.77 586.866,322.77 579.5,324C 563.995,324.169 548.661,324.669 533.5,325.5C 521.988,325.172 510.654,325.505 499.5,326.5C 491.833,326.5 484.167,326.5 476.5,326.5C 469.5,326.5 462.5,326.5 455.5,326.5C 455.5,319.167 455.5,311.833 455.5,304.5C 474.674,304.83 493.674,304.497 512.5,303.5C 514.017,303.489 515.184,302.823 516,301.5C 518.076,294.44 520.243,287.44 522.5,280.5C 523.167,280.833 523.833,281.167 524.5,281.5C 526.332,285.836 528.665,289.836 531.5,293.5C 534.995,301.161 538.995,308.495 543.5,315.5C 551.167,316.833 558.833,316.833 566.5,315.5C 581.422,317.718 595.089,314.718 607.5,306.5C 608.167,306.5 608.5,306.167 608.5,305.5C 633.598,304.842 658.598,304.176 683.5,303.5C 686.874,303.326 690.207,302.826 693.5,302C 710.037,298.463 719.204,288.297 721,271.5C 721.167,264.167 721.333,256.833 721.5,249.5C 725.962,222.829 714.962,207.662 688.5,204C 666.167,203.667 643.833,203.333 621.5,203C 620.556,200.281 620.223,197.448 620.5,194.5C 645.836,194.333 671.169,194.5 696.5,195C 703.19,196.241 709.857,197.241 716.5,198C 718.357,196.818 719.357,195.151 719.5,193C 717.445,183.832 715.445,174.665 713.5,165.5C 713.5,164.833 713.833,164.5 714.5,164.5 Z"/></g>
<g><path style="opacity:1" fill="#3b3a39" d="M 547.5,233.5 C 547.167,233.5 546.833,233.5 546.5,233.5C 545.672,227.013 545.172,220.346 545,213.5C 539.857,229.094 535.024,244.761 530.5,260.5C 527.725,267.267 525.725,274.267 524.5,281.5C 523.833,281.167 523.167,280.833 522.5,280.5C 529.91,255.605 537.91,230.938 546.5,206.5C 547.498,215.475 547.832,224.475 547.5,233.5 Z"/></g>
<g><path style="opacity:1" fill="#f5d3ce" d="M 241.5,183.5 C 242.491,189.979 242.824,196.646 242.5,203.5C 251.5,203.5 260.5,203.5 269.5,203.5C 269.5,206.167 269.5,208.833 269.5,211.5C 260.918,210.53 252.251,210.197 243.5,210.5C 243.737,211.791 243.404,212.791 242.5,213.5C 242.802,210.941 242.468,208.607 241.5,206.5C 241.5,198.833 241.5,191.167 241.5,183.5 Z"/></g>
<g><path style="opacity:1" fill="#f4b9b0" d="M 269.5,211.5 C 269.5,213.5 269.5,215.5 269.5,217.5C 260.582,217.183 251.749,217.516 243,218.5C 242.506,216.866 242.34,215.199 242.5,213.5C 243.404,212.791 243.737,211.791 243.5,210.5C 252.251,210.197 260.918,210.53 269.5,211.5 Z"/></g>
<g><path style="opacity:1" fill="#efa396" d="M 241.5,206.5 C 242.468,208.607 242.802,210.941 242.5,213.5C 242.34,215.199 242.506,216.866 243,218.5C 251.749,217.516 260.582,217.183 269.5,217.5C 269.5,218.833 269.5,220.167 269.5,221.5C 260.37,222.114 251.37,222.781 242.5,223.5C 242.167,223.5 241.833,223.5 241.5,223.5C 241.5,217.833 241.5,212.167 241.5,206.5 Z"/></g>
<g><path style="opacity:0.593" fill="#111311" d="M 344.5,160.5 C 344.158,161.338 343.492,161.672 342.5,161.5C 346.196,154.15 349.863,146.817 353.5,139.5C 355.653,137.206 357.32,134.54 358.5,131.5C 360.267,129.062 361.601,126.395 362.5,123.5C 365.531,119.113 368.197,114.446 370.5,109.5C 372.42,106.661 374.087,103.661 375.5,100.5C 378.088,96.326 380.421,91.9926 382.5,87.5C 385.833,81.5 389.167,75.5 392.5,69.5C 394.467,66.9876 394.8,64.321 393.5,61.5C 390.833,57.5 388.167,53.5 385.5,49.5C 379.507,39.0373 372.173,29.5373 363.5,21C 341.699,7.85745 321.699,10.0241 303.5,27.5C 299.746,31.6065 296.746,36.2732 294.5,41.5C 292.262,44.9717 290.262,48.6383 288.5,52.5C 286.595,55.3037 284.929,58.3037 283.5,61.5C 280.916,65.6662 278.583,69.9996 276.5,74.5C 274.25,77.9988 272.25,81.6654 270.5,85.5C 267.009,90.4743 264.009,95.8076 261.5,101.5C 260.326,102.514 259.66,103.847 259.5,105.5C 257.165,108.531 255.165,111.865 253.5,115.5C 253.624,116.107 253.957,116.44 254.5,116.5C 281.833,131.5 309.167,146.5 336.5,161.5C 302.663,161.168 268.996,161.502 235.5,162.5C 232.688,162.979 231.355,164.646 231.5,167.5C 233.246,171.34 234.746,175.34 236,179.5C 236.667,209.167 236.667,238.833 236,268.5C 235.5,269.667 234.667,270.5 233.5,271C 209.833,271.667 186.167,271.667 162.5,271C 161.584,270.626 160.75,270.126 160,269.5C 159.333,238.833 159.333,208.167 160,177.5C 161.302,174.046 162.802,170.712 164.5,167.5C 164.124,165.617 163.124,164.117 161.5,163C 134.833,162.333 108.167,162.333 81.5,163C 78.7928,164.864 77.9595,167.364 79,170.5C 80.8605,172.888 82.1939,175.554 83,178.5C 83.3333,207.5 83.6667,236.5 84,265.5C 88.4259,291.406 103.926,304.072 130.5,303.5C 148.993,304.497 167.659,304.83 186.5,304.5C 191.167,313.833 195.833,323.167 200.5,332.5C 199.508,332.672 198.842,332.338 198.5,331.5C 193.973,322.947 189.306,314.447 184.5,306C 162.13,305.934 139.797,305.267 117.5,304C 95.3737,299.539 83.5403,286.039 82,263.5C 81.6667,235.5 81.3333,207.5 81,179.5C 79.7811,175.395 78.2811,171.395 76.5,167.5C 76.8561,164.312 78.5228,162.145 81.5,161C 107.833,160.333 134.167,160.333 160.5,161C 165.294,162.867 166.794,166.367 165,171.5C 162.672,175.488 161.338,179.821 161,184.5C 160.333,212.167 160.333,239.833 161,267.5C 162.133,269.211 163.633,269.711 165.5,269C 162.776,260.822 162.943,252.655 166,244.5C 176.455,225.754 187.288,207.254 198.5,189C 191.343,184.663 184.343,180.163 177.5,175.5C 195.14,173.914 212.807,172.58 230.5,171.5C 228.335,166.629 229.668,163.129 234.5,161C 266.833,160.667 299.167,160.333 331.5,160C 304.182,146.009 277.182,131.509 250.5,116.5C 266.667,87.5 282.833,58.5 299,29.5C 319.058,7.41256 341.558,4.57923 366.5,21C 369,23.5 371.5,26 374,28.5C 382.03,40.365 389.863,52.365 397.5,64.5C 379.821,96.5271 362.154,128.527 344.5,160.5 Z"/></g>
<g><path style="opacity:1" fill="#b8ddc8" d="M 182.5,177.5 C 183.568,176.566 184.901,176.232 186.5,176.5C 189.305,177.319 192.305,177.819 195.5,178C 208,189.167 220.5,200.333 233,211.5C 233.383,210.944 233.883,210.611 234.5,210.5C 234.5,217.167 234.5,223.833 234.5,230.5C 223.012,220.512 211.679,210.345 200.5,200C 198.689,198.496 197.022,197.663 195.5,197.5C 197.377,194.19 198.877,190.857 200,187.5C 194.221,184.028 188.387,180.695 182.5,177.5 Z"/></g>
<g><path style="opacity:1" fill="#f2a093" d="M 153.5,219.5 C 153.5,220.833 153.5,222.167 153.5,223.5C 132.5,223.5 111.5,223.5 90.5,223.5C 90.7373,224.791 90.404,225.791 89.5,226.5C 89.5,225.167 89.5,223.833 89.5,222.5C 90.404,221.791 90.7373,220.791 90.5,219.5C 111.5,219.5 132.5,219.5 153.5,219.5 Z"/></g>
<g><path style="opacity:1" fill="#85c39f" d="M 234.5,184.5 C 235.828,212.402 235.828,240.402 234.5,268.5C 232.814,265.297 230.481,262.464 227.5,260C 212.895,247.734 198.562,235.067 184.5,222C 183.231,222.109 182.231,221.942 181.5,221.5C 183.344,217.136 185.677,213.136 188.5,209.5C 203.765,220.875 218.598,233.541 233,247.5C 234.449,242.019 234.949,236.352 234.5,230.5C 234.5,223.833 234.5,217.167 234.5,210.5C 234.5,201.833 234.5,193.167 234.5,184.5 Z"/></g>
<g><path style="opacity:1" fill="#f3afa4" d="M 153.5,215.5 C 153.5,216.833 153.5,218.167 153.5,219.5C 132.5,219.5 111.5,219.5 90.5,219.5C 90.7373,220.791 90.404,221.791 89.5,222.5C 89.5,221.167 89.5,219.833 89.5,218.5C 90.4345,217.432 90.7678,216.099 90.5,214.5C 111.546,214.189 132.546,214.523 153.5,215.5 Z"/></g>
<g><path style="opacity:1" fill="#e8b9b1" d="M 88.5,181.5 C 89.1667,191.167 89.8333,200.833 90.5,210.5C 111.5,210.5 132.5,210.5 153.5,210.5C 153.5,212.167 153.5,213.833 153.5,215.5C 132.546,214.523 111.546,214.189 90.5,214.5C 90.7678,216.099 90.4345,217.432 89.5,218.5C 89.1667,218.5 88.8333,218.5 88.5,218.5C 88.5,206.167 88.5,193.833 88.5,181.5 Z"/></g>
<g><path style="opacity:1" fill="#a2d3b7" d="M 195.5,197.5 C 197.022,197.663 198.689,198.496 200.5,200C 211.679,210.345 223.012,220.512 234.5,230.5C 234.949,236.352 234.449,242.019 233,247.5C 218.598,233.541 203.765,220.875 188.5,209.5C 190.344,205.136 192.677,201.136 195.5,197.5 Z"/></g>
<g><path style="opacity:1" fill="#f6d0cb" d="M 90.5,205.5 C 110.836,205.333 131.169,205.5 151.5,206C 152.044,206.717 152.711,207.217 153.5,207.5C 153.5,208.5 153.5,209.5 153.5,210.5C 132.5,210.5 111.5,210.5 90.5,210.5C 90.5,208.833 90.5,207.167 90.5,205.5 Z"/></g>
<g><path style="opacity:1" fill="#f8e8e7" d="M 153.5,203.5 C 153.5,204.833 153.5,206.167 153.5,207.5C 152.711,207.217 152.044,206.717 151.5,206C 131.169,205.5 110.836,205.333 90.5,205.5C 90.5,202.5 90.5,199.5 90.5,196.5C 110.833,196.5 131.167,196.5 151.5,196.5C 151.338,198.527 151.505,200.527 152,202.5C 152.383,203.056 152.883,203.389 153.5,203.5 Z"/></g>
<g><path style="opacity:1" fill="#d5ebde" d="M 234.5,184.5 C 234.5,193.167 234.5,201.833 234.5,210.5C 233.883,210.611 233.383,210.944 233,211.5C 220.5,200.333 208,189.167 195.5,178C 192.305,177.819 189.305,177.319 186.5,176.5C 195.056,176.78 203.39,176.114 211.5,174.5C 218.524,174.331 225.524,174.164 232.5,174C 233.971,177.321 234.637,180.821 234.5,184.5 Z"/></g>
<g><path style="opacity:1" fill="#8ea095" d="M 211.5,174.5 C 203.39,176.114 195.056,176.78 186.5,176.5C 184.901,176.232 183.568,176.566 182.5,177.5C 181.957,177.44 181.624,177.107 181.5,176.5C 191.477,175.449 201.477,174.782 211.5,174.5 Z"/></g>
<g><path style="opacity:1" fill="#faf8f7" d="M 84.5,168.5 C 109.006,168.169 133.339,168.502 157.5,169.5C 156.041,173.046 154.874,176.712 154,180.5C 153.5,188.159 153.334,195.826 153.5,203.5C 152.883,203.389 152.383,203.056 152,202.5C 151.505,200.527 151.338,198.527 151.5,196.5C 131.167,196.5 110.833,196.5 90.5,196.5C 90.5,199.5 90.5,202.5 90.5,205.5C 90.5,207.167 90.5,208.833 90.5,210.5C 89.8333,200.833 89.1667,191.167 88.5,181.5C 87.9364,176.907 86.603,172.574 84.5,168.5 Z"/></g>
<g><path style="opacity:1" fill="#c4c4c4" d="M 84.5,168.5 C 109.003,167.171 133.67,167.171 158.5,168.5C 158.376,169.107 158.043,169.44 157.5,169.5C 133.339,168.502 109.006,168.169 84.5,168.5 Z"/></g>
<g><path style="opacity:1" fill="#219552" d="M 254.5,116.5 C 285.891,122.879 317.224,129.712 348.5,137C 350.491,137.374 352.158,138.207 353.5,139.5C 349.863,146.817 346.196,154.15 342.5,161.5C 340.5,161.5 338.5,161.5 336.5,161.5C 309.167,146.5 281.833,131.5 254.5,116.5 Z"/></g>
<g><path style="opacity:1" fill="#39a166" d="M 259.5,105.5 C 291.395,113.833 324.061,121.499 357.5,128.5C 357.263,129.791 357.596,130.791 358.5,131.5C 357.32,134.54 355.653,137.206 353.5,139.5C 352.158,138.207 350.491,137.374 348.5,137C 317.224,129.712 285.891,122.879 254.5,116.5C 253.957,116.44 253.624,116.107 253.5,115.5C 255.165,111.865 257.165,108.531 259.5,105.5 Z"/></g>
<g><path style="opacity:1" fill="#49a972" d="M 362.5,123.5 C 361.601,126.395 360.267,129.062 358.5,131.5C 357.596,130.791 357.263,129.791 357.5,128.5C 324.061,121.499 291.395,113.833 259.5,105.5C 259.66,103.847 260.326,102.514 261.5,101.5C 261.859,103.831 262.526,103.665 263.5,101C 266.866,100.67 270.199,101.003 273.5,102C 303.302,109.122 332.968,116.289 362.5,123.5 Z"/></g>
<g><path style="opacity:1" fill="#5ab17f" d="M 270.5,85.5 C 270.369,86.3764 270.702,87.0431 271.5,87.5C 298.531,93.841 325.531,100.341 352.5,107C 358.409,108.549 364.409,109.382 370.5,109.5C 368.197,114.446 365.531,119.113 362.5,123.5C 332.968,116.289 303.302,109.122 273.5,102C 270.199,101.003 266.866,100.67 263.5,101C 262.526,103.665 261.859,103.831 261.5,101.5C 264.009,95.8076 267.009,90.4743 270.5,85.5 Z"/></g>
<g><path style="opacity:1" fill="#73bd93" d="M 276.5,74.5 C 308.443,82.8405 341.109,90.5072 374.5,97.5C 374.263,98.791 374.596,99.791 375.5,100.5C 374.087,103.661 372.42,106.661 370.5,109.5C 364.409,109.382 358.409,108.549 352.5,107C 325.531,100.341 298.531,93.841 271.5,87.5C 270.702,87.0431 270.369,86.3764 270.5,85.5C 272.25,81.6654 274.25,77.9988 276.5,74.5 Z"/></g>
<g><path style="opacity:1" fill="#8cc9a6" d="M 283.5,61.5 C 285.732,63.1954 288.399,64.3621 291.5,65C 321.127,71.7174 350.46,78.3841 379.5,85C 380.691,85.6979 381.691,86.5313 382.5,87.5C 380.421,91.9926 378.088,96.326 375.5,100.5C 374.596,99.791 374.263,98.791 374.5,97.5C 341.109,90.5072 308.443,82.8405 276.5,74.5C 278.583,69.9996 280.916,65.6662 283.5,61.5 Z"/></g>
<g><path style="opacity:1" fill="#acd7be" d="M 392.5,69.5 C 389.167,75.5 385.833,81.5 382.5,87.5C 381.691,86.5313 380.691,85.6979 379.5,85C 350.46,78.3841 321.127,71.7174 291.5,65C 288.399,64.3621 285.732,63.1954 283.5,61.5C 284.929,58.3037 286.595,55.3037 288.5,52.5C 288.81,53.7383 289.31,53.7383 290,52.5C 291,50.8333 292,49.1667 293,47.5C 325.017,55.0373 357.017,62.704 389,70.5C 390.138,70.0109 391.305,69.6775 392.5,69.5 Z"/></g>
<g><path style="opacity:1" fill="#c5e3d2" d="M 393.5,61.5 C 394.8,64.321 394.467,66.9876 392.5,69.5C 391.305,69.6775 390.138,70.0109 389,70.5C 357.017,62.704 325.017,55.0373 293,47.5C 292,49.1667 291,50.8333 290,52.5C 289.31,53.7383 288.81,53.7383 288.5,52.5C 290.262,48.6383 292.262,44.9717 294.5,41.5C 294.369,42.2389 294.536,42.9056 295,43.5C 295.837,41.1558 297.171,39.1558 299,37.5C 328.211,45.2186 357.877,52.2186 388,58.5C 389.841,59.5617 391.674,60.5617 393.5,61.5 Z"/></g>
<g><path style="opacity:1" fill="#d9ede1" d="M 385.5,49.5 C 388.167,53.5 390.833,57.5 393.5,61.5C 391.674,60.5617 389.841,59.5617 388,58.5C 357.877,52.2186 328.211,45.2186 299,37.5C 297.171,39.1558 295.837,41.1558 295,43.5C 294.536,42.9056 294.369,42.2389 294.5,41.5C 296.746,36.2732 299.746,31.6065 303.5,27.5C 304.583,27.4606 305.583,27.1272 306.5,26.5C 323.161,31.4331 340.161,35.2664 357.5,38C 364.981,40.622 372.648,42.7886 380.5,44.5C 381.524,46.9456 383.191,48.6123 385.5,49.5 Z"/></g>
<g><path style="opacity:1" fill="#f0f6f2" d="M 385.5,49.5 C 383.191,48.6123 381.524,46.9456 380.5,44.5C 372.648,42.7886 364.981,40.622 357.5,38C 340.161,35.2664 323.161,31.4331 306.5,26.5C 305.583,27.1272 304.583,27.4606 303.5,27.5C 321.699,10.0241 341.699,7.85745 363.5,21C 372.173,29.5373 379.507,39.0373 385.5,49.5 Z"/></g>
<g><path style="opacity:1" fill="#f18f7f" d="M 153.5,223.5 C 153.5,224.833 153.5,226.167 153.5,227.5C 132.5,227.5 111.5,227.5 90.5,227.5C 89.9553,231.172 89.6219,230.838 89.5,226.5C 90.404,225.791 90.7373,224.791 90.5,223.5C 111.5,223.5 132.5,223.5 153.5,223.5 Z"/></g>
<g><path style="opacity:1" fill="#f08978" d="M 269.5,221.5 C 269.5,223.833 269.5,226.167 269.5,228.5C 268.711,228.783 268.044,229.283 267.5,230C 259.479,230.832 251.479,230.665 243.5,229.5C 242.652,227.591 242.318,225.591 242.5,223.5C 251.37,222.781 260.37,222.114 269.5,221.5 Z"/></g>
<g><path style="opacity:1" fill="#1c1a1a" d="M 280.5,165.5 C 306.833,165.5 333.167,165.5 359.5,165.5C 357.156,172.437 356.989,179.437 359,186.5C 365.543,206.46 371.876,226.46 378,246.5C 386.257,219.397 395.09,192.564 404.5,166C 426.5,165.333 448.5,165.333 470.5,166C 480.053,192.657 489.219,219.49 498,246.5C 504.961,224.915 511.628,203.248 518,181.5C 518.667,178.5 518.667,175.5 518,172.5C 517.149,170.408 516.482,168.408 516,166.5C 530.667,165.167 545.333,165.167 560,166.5C 560.667,167.167 560.667,167.833 560,168.5C 555.088,173.315 551.421,178.982 549,185.5C 536.996,223.511 524.996,261.511 513,299.5C 491.232,300.826 469.399,300.826 447.5,299.5C 438.365,272.094 429.031,244.76 419.5,217.5C 410.793,245.121 401.793,272.621 392.5,300C 371.159,300.833 349.826,300.666 328.5,299.5C 315.572,261.215 302.738,222.881 290,184.5C 287.094,178.436 283.594,172.769 279.5,167.5C 279.863,166.817 280.196,166.15 280.5,165.5 Z"/></g>
<g><path style="opacity:1" fill="#ee8371" d="M 489.5,227.5 C 490.363,229.421 491.029,231.421 491.5,233.5C 490.373,232.878 489.373,232.045 488.5,231C 467.836,230.5 447.169,230.333 426.5,230.5C 425.89,229.609 425.557,228.609 425.5,227.5C 446.804,226.177 468.137,226.177 489.5,227.5 Z"/></g>
<g><path style="opacity:1" fill="#ef8b7b" d="M 388.5,221.5 C 388.369,222.239 388.536,222.906 389,223.5C 397.749,222.516 406.582,222.183 415.5,222.5C 415.122,224.921 414.455,227.254 413.5,229.5C 404.167,229.5 394.833,229.5 385.5,229.5C 386.129,226.603 387.129,223.936 388.5,221.5 Z"/></g>
<g><path style="opacity:1" fill="#ef8979" d="M 368.5,223.5 C 369.458,225.302 370.125,227.302 370.5,229.5C 369.883,229.389 369.383,229.056 369,228.5C 348.5,229.172 328,229.839 307.5,230.5C 306.637,228.579 305.971,226.579 305.5,224.5C 326.409,224.173 347.242,224.507 368,225.5C 368.464,224.906 368.631,224.239 368.5,223.5 Z"/></g>
<g><path style="opacity:1" fill="#f09788" d="M 509.5,217.5 C 518.033,218.885 526.7,220.218 535.5,221.5C 535.029,223.579 534.363,225.579 533.5,227.5C 524.584,226.529 515.584,226.196 506.5,226.5C 507.054,223.254 508.054,220.254 509.5,217.5 Z"/></g>
<g><path style="opacity:1" fill="#f09789" d="M 487.5,221.5 C 488.363,223.421 489.029,225.421 489.5,227.5C 468.137,226.177 446.804,226.177 425.5,227.5C 424.637,225.579 423.971,223.579 423.5,221.5C 433.773,220.19 444.273,219.524 455,219.5C 465.167,219.667 475.333,219.833 485.5,220C 486.044,220.717 486.711,221.217 487.5,221.5 Z"/></g>
<g><path style="opacity:1" fill="#f19b8d" d="M 367.5,219.5 C 368.234,220.708 368.567,222.041 368.5,223.5C 368.631,224.239 368.464,224.906 368,225.5C 347.242,224.507 326.409,224.173 305.5,224.5C 304.89,223.609 304.557,222.609 304.5,221.5C 325.268,219.529 346.268,218.862 367.5,219.5 Z"/></g>
<g><path style="opacity:1" fill="#f1a497" d="M 416.5,219.5 C 416.737,220.791 416.404,221.791 415.5,222.5C 406.582,222.183 397.749,222.516 389,223.5C 388.536,222.906 388.369,222.239 388.5,221.5C 388.263,220.209 388.596,219.209 389.5,218.5C 389.435,218.938 389.601,219.272 390,219.5C 394.077,218.202 398.411,217.536 403,217.5C 407.752,217.563 412.252,218.229 416.5,219.5 Z"/></g>
<g><path style="opacity:1" fill="#f2b1a7" d="M 537.5,215.5 C 537.029,217.579 536.363,219.579 535.5,221.5C 526.7,220.218 518.033,218.885 509.5,217.5C 509.263,216.209 509.596,215.209 510.5,214.5C 511.11,216.85 511.444,216.517 511.5,213.5C 520.434,212.908 529.101,213.575 537.5,215.5 Z"/></g>
<g><path style="opacity:1" fill="#262c26" d="M 505.5,210.5 C 503.309,218.597 500.809,226.597 498,234.5C 495.03,229.221 493.197,223.554 492.5,217.5C 494.624,221.94 496.457,226.607 498,231.5C 500,224.833 502,218.167 504,211.5C 504.383,210.944 504.883,210.611 505.5,210.5 Z"/></g>
<g><path style="opacity:1" fill="#f3b2a8" d="M 485.5,216.5 C 486.537,217.93 487.204,219.597 487.5,221.5C 486.711,221.217 486.044,220.717 485.5,220C 475.333,219.833 465.167,219.667 455,219.5C 444.273,219.524 433.773,220.19 423.5,221.5C 422.637,219.579 421.971,217.579 421.5,215.5C 431.773,214.19 442.273,213.524 453,213.5C 463.167,213.833 473.333,214.167 483.5,214.5C 484,215.5 484.5,216.5 485,217.5C 485.399,217.272 485.565,216.938 485.5,216.5 Z"/></g>
<g><path style="opacity:1" fill="#f3b2a8" d="M 365.5,214.5 C 366.537,215.93 367.204,217.597 367.5,219.5C 346.268,218.862 325.268,219.529 304.5,221.5C 303.637,219.579 302.971,217.579 302.5,215.5C 322.934,213.53 343.601,212.863 364.5,213.5C 364.556,216.517 364.89,216.85 365.5,214.5 Z"/></g>
<g><path style="opacity:1" fill="#0b8b41" d="M 505.5,209.5 C 505.5,209.833 505.5,210.167 505.5,210.5C 504.883,210.611 504.383,210.944 504,211.5C 502,218.167 500,224.833 498,231.5C 496.457,226.607 494.624,221.94 492.5,217.5C 493.031,215.376 494.365,213.876 496.5,213C 499.329,211.753 501.995,210.253 504.5,208.5C 505.107,208.624 505.44,208.957 505.5,209.5 Z"/></g>
<g><path style="opacity:1" fill="#f4c4bc" d="M 363.5,207.5 C 364.612,209.599 365.279,211.933 365.5,214.5C 364.89,216.85 364.556,216.517 364.5,213.5C 343.601,212.863 322.934,213.53 302.5,215.5C 301.637,213.579 300.971,211.579 300.5,209.5C 321.363,208.182 342.196,208.182 363,209.5C 363.464,208.906 363.631,208.239 363.5,207.5 Z"/></g>
<g><path style="opacity:1" fill="#f3c7c0" d="M 513.5,204.5 C 513.393,206.379 513.893,206.712 515,205.5C 523.353,205.875 531.519,206.875 539.5,208.5C 538.833,210.833 538.167,213.167 537.5,215.5C 529.101,213.575 520.434,212.908 511.5,213.5C 511.444,216.517 511.11,216.85 510.5,214.5C 510.899,210.884 511.899,207.55 513.5,204.5 Z"/></g>
<g><path style="opacity:1" fill="#f3c4bc" d="M 393.5,205.5 C 393.414,206.496 393.748,207.329 394.5,208C 424.003,208.83 453.336,208.664 482.5,207.5C 484.072,210.215 485.072,213.215 485.5,216.5C 485.565,216.938 485.399,217.272 485,217.5C 484.5,216.5 484,215.5 483.5,214.5C 473.333,214.167 463.167,213.833 453,213.5C 442.273,213.524 431.773,214.19 421.5,215.5C 421.092,214.357 420.425,213.357 419.5,212.5C 418.648,214.924 417.648,217.258 416.5,219.5C 412.252,218.229 407.752,217.563 403,217.5C 398.411,217.536 394.077,218.202 390,219.5C 389.601,219.272 389.435,218.938 389.5,218.5C 390.078,213.835 391.411,209.501 393.5,205.5 Z"/></g>
<g><path style="opacity:1" fill="#f6d6d1" d="M 394.5,202.5 C 394.414,203.496 394.748,204.329 395.5,205C 424.336,205.83 453.003,205.664 481.5,204.5C 482.404,205.209 482.737,206.209 482.5,207.5C 453.336,208.664 424.003,208.83 394.5,208C 393.748,207.329 393.414,206.496 393.5,205.5C 393.263,204.209 393.596,203.209 394.5,202.5 Z"/></g>
<g><path style="opacity:1" fill="#f5d9d4" d="M 361.5,201.5 C 362.738,203.214 363.405,205.214 363.5,207.5C 363.631,208.239 363.464,208.906 363,209.5C 342.196,208.182 321.363,208.182 300.5,209.5C 299.637,207.579 298.971,205.579 298.5,203.5C 319,202.839 339.5,202.172 360,201.5C 360.779,204.097 361.279,204.097 361.5,201.5 Z"/></g>
<g><path style="opacity:1" fill="#f3e8e7" d="M 543.5,194.5 C 544.376,185.38 547.71,177.213 553.5,170C 542.5,169.333 531.5,169.333 520.5,170C 522.747,177.487 522.08,184.821 518.5,192C 526.493,192.5 534.493,192.666 542.5,192.5C 542.232,194.099 542.566,195.432 543.5,196.5C 542.368,200.563 541.035,204.563 539.5,208.5C 531.519,206.875 523.353,205.875 515,205.5C 513.893,206.712 513.393,206.379 513.5,204.5C 515.174,198.141 517.007,191.807 519,185.5C 519.788,179.78 519.621,174.114 518.5,168.5C 531.821,167.334 545.154,167.167 558.5,168C 554.908,170.921 552.075,174.421 550,178.5C 547.706,183.904 545.54,189.238 543.5,194.5 Z"/></g>
<g><path style="opacity:1" fill="#f6ebea" d="M 356.5,170.5 C 356.334,175.179 356.501,179.845 357,184.5C 358.66,190.142 360.16,195.809 361.5,201.5C 361.279,204.097 360.779,204.097 360,201.5C 339.5,202.172 319,202.839 298.5,203.5C 297.637,201.579 296.971,199.579 296.5,197.5C 297.705,196.328 297.705,194.995 296.5,193.5C 316.489,192.5 336.489,192.167 356.5,192.5C 355.566,187.331 354.566,182.164 353.5,177C 353.285,174.091 354.285,171.924 356.5,170.5 Z"/></g>
<g><path style="opacity:1" fill="#f4eae9" d="M 481.5,204.5 C 453.003,205.664 424.336,205.83 395.5,205C 394.748,204.329 394.414,203.496 394.5,202.5C 397.833,190.833 401.167,179.167 404.5,167.5C 426.169,167.333 447.836,167.5 469.5,168C 474.344,179.871 478.344,192.038 481.5,204.5 Z"/></g>
<g><path style="opacity:1" fill="#faf8f8" d="M 543.5,194.5 C 543.5,195.167 543.5,195.833 543.5,196.5C 542.566,195.432 542.232,194.099 542.5,192.5C 534.493,192.666 526.493,192.5 518.5,192C 522.08,184.821 522.747,177.487 520.5,170C 531.5,169.333 542.5,169.333 553.5,170C 547.71,177.213 544.376,185.38 543.5,194.5 Z"/></g>
<g><path style="opacity:1" fill="#faf8f8" d="M 406.5,169.5 C 427.177,169.167 447.844,169.5 468.5,170.5C 471.241,177.723 473.575,185.057 475.5,192.5C 450.167,192.5 424.833,192.5 399.5,192.5C 401.678,184.788 404.011,177.121 406.5,169.5 Z"/></g>
<g><path style="opacity:1" fill="#f7f6f6" d="M 356.5,170.5 C 354.285,171.924 353.285,174.091 353.5,177C 354.566,182.164 355.566,187.331 356.5,192.5C 336.489,192.167 316.489,192.5 296.5,193.5C 297.705,194.995 297.705,196.328 296.5,197.5C 293.746,186.492 288.746,176.659 281.5,168C 306.84,167.167 332.173,167.334 357.5,168.5C 357.137,169.183 356.804,169.85 356.5,170.5 Z"/></g>
<g><path style="opacity:1" fill="#6dba8e" d="M 181.5,221.5 C 182.231,221.942 183.231,222.109 184.5,222C 198.562,235.067 212.895,247.734 227.5,260C 230.481,262.464 232.814,265.297 234.5,268.5C 234.082,269.222 233.416,269.722 232.5,270C 226.843,270.499 221.176,270.666 215.5,270.5C 215.199,267.587 213.532,265.087 210.5,263C 198.593,252.584 186.926,242.084 175.5,231.5C 177.137,227.882 179.137,224.549 181.5,221.5 Z"/></g>
<g><path style="opacity:1" fill="#e17362" d="M 88.5,218.5 C 88.8333,218.5 89.1667,218.5 89.5,218.5C 89.5,219.833 89.5,221.167 89.5,222.5C 89.5,223.833 89.5,225.167 89.5,226.5C 89.6219,230.838 89.9553,231.172 90.5,227.5C 111.5,227.5 132.5,227.5 153.5,227.5C 153.5,229.167 153.5,230.833 153.5,232.5C 132.489,232.167 111.489,232.5 90.5,233.5C 89.5741,237.094 89.2408,240.76 89.5,244.5C 89.5,247.5 89.5,250.5 89.5,253.5C 89.5,257.833 89.5,262.167 89.5,266.5C 88.5036,250.675 88.1703,234.675 88.5,218.5 Z"/></g>
<g><path style="opacity:1" fill="#ec7461" d="M 241.5,223.5 C 241.833,223.5 242.167,223.5 242.5,223.5C 242.318,225.591 242.652,227.591 243.5,229.5C 251.479,230.665 259.479,230.832 267.5,230C 268.044,229.283 268.711,228.783 269.5,228.5C 269.5,230.833 269.5,233.167 269.5,235.5C 261.018,235.246 252.352,235.58 243.5,236.5C 242.652,238.409 242.318,240.409 242.5,242.5C 242.167,242.5 241.833,242.5 241.5,242.5C 241.5,236.167 241.5,229.833 241.5,223.5 Z"/></g>
<g><path style="opacity:1" fill="#ec7966" d="M 506.5,226.5 C 515.584,226.196 524.584,226.529 533.5,227.5C 532.946,230.746 531.946,233.746 530.5,236.5C 530.631,235.761 530.464,235.094 530,234.5C 521.251,235.484 512.418,235.817 503.5,235.5C 504.304,232.421 505.304,229.421 506.5,226.5 Z"/></g>
<g><path style="opacity:1" fill="#5ab17f" d="M 175.5,231.5 C 186.926,242.084 198.593,252.584 210.5,263C 213.532,265.087 215.199,267.587 215.5,270.5C 210.5,270.5 205.5,270.5 200.5,270.5C 201.602,268.908 200.935,268.075 198.5,268C 190.463,260.295 182.13,252.961 173.5,246C 171.84,244.512 170.84,242.679 170.5,240.5C 171.917,237.331 173.583,234.331 175.5,231.5 Z"/></g>
<g><path style="opacity:1" fill="#ee6d5c" d="M 370.5,229.5 C 372.232,233.697 373.565,238.031 374.5,242.5C 363.824,241.212 352.99,240.545 342,240.5C 331.661,240.5 321.494,240.833 311.5,241.5C 309.796,238.061 308.462,234.395 307.5,230.5C 328,229.839 348.5,229.172 369,228.5C 369.383,229.056 369.883,229.389 370.5,229.5 Z"/></g>
<g><path style="opacity:1" fill="#ee6e5c" d="M 426.5,230.5 C 447.169,230.333 467.836,230.5 488.5,231C 489.373,232.045 490.373,232.878 491.5,233.5C 493.029,237.421 494.363,241.421 495.5,245.5C 493.366,244.297 492.032,242.463 491.5,240C 471.5,239.333 451.5,239.333 431.5,240C 430.944,240.383 430.611,240.883 430.5,241.5C 428.796,238.061 427.462,234.395 426.5,230.5 Z"/></g>
<g><path style="opacity:1" fill="#ef6657" d="M 153.5,232.5 C 153.5,235.833 153.5,239.167 153.5,242.5C 132.137,243.156 110.803,243.822 89.5,244.5C 89.2408,240.76 89.5741,237.094 90.5,233.5C 111.489,232.5 132.489,232.167 153.5,232.5 Z"/></g>
<g><path style="opacity:1" fill="#ef6355" d="M 269.5,235.5 C 269.5,238.167 269.5,240.833 269.5,243.5C 268.711,243.783 268.044,244.283 267.5,245C 259.507,245.5 251.507,245.666 243.5,245.5C 243.737,244.209 243.404,243.209 242.5,242.5C 242.318,240.409 242.652,238.409 243.5,236.5C 252.352,235.58 261.018,235.246 269.5,235.5 Z"/></g>
<g><path style="opacity:1" fill="#ed6959" d="M 385.5,229.5 C 394.833,229.5 404.167,229.5 413.5,229.5C 412.003,234.659 410.336,239.659 408.5,244.5C 399.054,242.898 389.721,243.231 380.5,245.5C 382.17,240.15 383.836,234.817 385.5,229.5 Z"/></g>
<g><path style="opacity:1" fill="#65b588" d="M 546.5,233.5 C 546.332,237.658 546.998,241.658 548.5,245.5C 547.5,245.5 546.5,245.5 545.5,245.5C 545.649,246.552 545.483,247.552 545,248.5C 540.382,252.874 535.548,256.874 530.5,260.5C 535.024,244.761 539.857,229.094 545,213.5C 545.172,220.346 545.672,227.013 546.5,233.5 Z"/></g>
<g><path style="opacity:1" fill="#ee5c50" d="M 530.5,236.5 C 529.765,240.805 528.432,244.805 526.5,248.5C 526.565,248.062 526.399,247.728 526,247.5C 517.48,247.845 509.146,248.845 501,250.5C 500.617,249.944 500.117,249.611 499.5,249.5C 500.63,244.776 501.964,240.109 503.5,235.5C 512.418,235.817 521.251,235.484 530,234.5C 530.464,235.094 530.631,235.761 530.5,236.5 Z"/></g>
<g><path style="opacity:1" fill="#ef544b" d="M 374.5,242.5 C 375.696,245.421 376.696,248.421 377.5,251.5C 357.164,251.333 336.831,251.5 316.5,252C 315.944,252.383 315.611,252.883 315.5,253.5C 313.595,249.784 312.261,245.784 311.5,241.5C 321.494,240.833 331.661,240.5 342,240.5C 352.99,240.545 363.824,241.212 374.5,242.5 Z"/></g>
<g><path style="opacity:1" fill="#ef554b" d="M 495.5,245.5 C 496.363,247.421 497.029,249.421 497.5,251.5C 476.167,251.5 454.833,251.5 433.5,251.5C 432.101,248.301 431.101,244.968 430.5,241.5C 430.611,240.883 430.944,240.383 431.5,240C 451.5,239.333 471.5,239.333 491.5,240C 492.032,242.463 493.366,244.297 495.5,245.5 Z"/></g>
<g><path style="opacity:1" fill="#f04e46" d="M 153.5,242.5 C 153.5,245.833 153.5,249.167 153.5,252.5C 132.255,254.808 110.922,255.141 89.5,253.5C 89.5,250.5 89.5,247.5 89.5,244.5C 110.803,243.822 132.137,243.156 153.5,242.5 Z"/></g>
<g><path style="opacity:1" fill="#f04943" d="M 241.5,242.5 C 241.833,242.5 242.167,242.5 242.5,242.5C 243.404,243.209 243.737,244.209 243.5,245.5C 251.507,245.666 259.507,245.5 267.5,245C 268.044,244.283 268.711,243.783 269.5,243.5C 269.5,246.833 269.5,250.167 269.5,253.5C 268.733,254.172 268.066,255.005 267.5,256C 259.173,256.5 250.84,256.666 242.5,256.5C 242.5,259.833 242.5,263.167 242.5,266.5C 242.737,267.791 242.404,268.791 241.5,269.5C 241.5,260.5 241.5,251.5 241.5,242.5 Z"/></g>
<g><path style="opacity:1" fill="#ef4842" d="M 408.5,244.5 C 407.326,250.086 405.66,255.419 403.5,260.5C 403.5,258.833 403.5,257.167 403.5,255.5C 374.833,255.5 346.167,255.5 317.5,255.5C 317.5,256.833 317.5,258.167 317.5,259.5C 316.262,257.786 315.595,255.786 315.5,253.5C 315.611,252.883 315.944,252.383 316.5,252C 336.831,251.5 357.164,251.333 377.5,251.5C 378.771,250.315 379.771,248.315 380.5,245.5C 389.721,243.231 399.054,242.898 408.5,244.5 Z"/></g>
<g><path style="opacity:1" fill="#42a56d" d="M 170.5,240.5 C 170.84,242.679 171.84,244.512 173.5,246C 182.13,252.961 190.463,260.295 198.5,268C 200.935,268.075 201.602,268.908 200.5,270.5C 189.48,270.832 178.48,270.499 167.5,269.5C 167,268.5 166.5,267.5 166,266.5C 165.333,260.833 165.333,255.167 166,249.5C 167.003,246.16 168.503,243.16 170.5,240.5 Z"/></g>
<g><path style="opacity:1" fill="#f0413d" d="M 526.5,248.5 C 525.415,254.413 523.748,260.08 521.5,265.5C 521.261,263.533 521.594,261.699 522.5,260C 493.928,259.829 465.428,259.329 437,258.5C 436.601,258.728 436.435,259.062 436.5,259.5C 435.129,257.064 434.129,254.397 433.5,251.5C 454.833,251.5 476.167,251.5 497.5,251.5C 497.435,251.938 497.601,252.272 498,252.5C 499.039,251.756 499.539,250.756 499.5,249.5C 500.117,249.611 500.617,249.944 501,250.5C 509.146,248.845 517.48,247.845 526,247.5C 526.399,247.728 526.565,248.062 526.5,248.5 Z"/></g>
<g><path style="opacity:1" fill="#f13737" d="M 403.5,260.5 C 403.737,261.791 403.404,262.791 402.5,263.5C 402.631,262.761 402.464,262.094 402,261.5C 374.574,262.495 347.074,262.828 319.5,262.5C 319.5,263.5 319.5,264.5 319.5,265.5C 318.262,263.786 317.595,261.786 317.5,259.5C 317.5,258.167 317.5,256.833 317.5,255.5C 346.167,255.5 374.833,255.5 403.5,255.5C 403.5,257.167 403.5,258.833 403.5,260.5 Z"/></g>
<g><path style="opacity:1" fill="#a0cfb4" d="M 558.5,257.5 C 563.045,259.293 567.712,260.793 572.5,262C 590.005,262.168 607.338,262.668 624.5,263.5C 618.5,263.5 612.5,263.5 606.5,263.5C 596.828,263.334 587.161,263.5 577.5,264C 581.002,264.656 581.002,265.989 577.5,268C 578.598,268.77 578.598,269.603 577.5,270.5C 574.15,270.665 570.817,270.498 567.5,270C 561.489,268.382 555.489,266.882 549.5,265.5C 552.577,263.613 555.577,261.446 558.5,259C 557.262,258.31 557.262,257.81 558.5,257.5 Z"/></g>
<g><path style="opacity:1" fill="#252222" d="M 546.5,233.5 C 546.833,233.5 547.167,233.5 547.5,233.5C 549.262,251.422 559.262,260.589 577.5,261C 600.5,261.333 623.5,261.667 646.5,262C 649.167,265 649.167,268 646.5,271C 639.508,271.5 632.508,271.666 625.5,271.5C 625.5,271.167 625.5,270.833 625.5,270.5C 625.802,267.941 625.468,265.607 624.5,263.5C 607.338,262.668 590.005,262.168 572.5,262C 567.712,260.793 563.045,259.293 558.5,257.5C 554.096,254.426 550.763,250.426 548.5,245.5C 546.998,241.658 546.332,237.658 546.5,233.5 Z M 626.5,263.5 C 627.219,265.764 627.552,268.097 627.5,270.5C 633.869,270.653 640.203,270.32 646.5,269.5C 646.5,267.5 646.5,265.5 646.5,263.5C 639.833,263.5 633.167,263.5 626.5,263.5 Z"/></g>
<g><path style="opacity:1" fill="#f13535" d="M 153.5,252.5 C 153.5,255.167 153.5,257.833 153.5,260.5C 151.824,261.183 151.157,262.517 151.5,264.5C 131.497,264.333 111.497,264.5 91.5,265C 90.5769,267.041 90.2436,269.208 90.5,271.5C 89.5489,270.081 89.2155,268.415 89.5,266.5C 89.5,262.167 89.5,257.833 89.5,253.5C 110.922,255.141 132.255,254.808 153.5,252.5 Z"/></g>
<g><path style="opacity:1" fill="#f12f31" d="M 269.5,253.5 C 269.823,259.69 269.49,265.69 268.5,271.5C 268.662,269.473 268.495,267.473 268,265.5C 264.091,266.796 259.925,267.463 255.5,267.5C 251.086,267.471 246.753,267.138 242.5,266.5C 242.5,263.167 242.5,259.833 242.5,256.5C 250.84,256.666 259.173,256.5 267.5,256C 268.066,255.005 268.733,254.172 269.5,253.5 Z"/></g>
<g><path style="opacity:1" fill="#f12d30" d="M 521.5,265.5 C 521.025,269.084 520.025,272.417 518.5,275.5C 518.292,273.08 518.626,270.747 519.5,268.5C 493.175,267.5 466.842,267.167 440.5,267.5C 440.5,268.833 440.5,270.167 440.5,271.5C 438.595,267.784 437.261,263.784 436.5,259.5C 436.435,259.062 436.601,258.728 437,258.5C 465.428,259.329 493.928,259.829 522.5,260C 521.594,261.699 521.261,263.533 521.5,265.5 Z"/></g>
<g><path style="opacity:1" fill="#cbe8d7" d="M 606.5,263.5 C 607.749,265.829 607.082,267.662 604.5,269C 605.416,269.278 606.082,269.778 606.5,270.5C 596.833,270.5 587.167,270.5 577.5,270.5C 578.598,269.603 578.598,268.77 577.5,268C 581.002,265.989 581.002,264.656 577.5,264C 587.161,263.5 596.828,263.334 606.5,263.5 Z"/></g>
<g><path style="opacity:1" fill="#e8f3ed" d="M 606.5,263.5 C 612.5,263.5 618.5,263.5 624.5,263.5C 625.468,265.607 625.802,267.941 625.5,270.5C 619.167,270.5 612.833,270.5 606.5,270.5C 606.082,269.778 605.416,269.278 604.5,269C 607.082,267.662 607.749,265.829 606.5,263.5 Z"/></g>
<g><path style="opacity:1" fill="#f2242a" d="M 402.5,263.5 C 401.91,268.169 400.577,272.503 398.5,276.5C 398.5,274.833 398.5,273.167 398.5,271.5C 373.167,271.5 347.833,271.5 322.5,271.5C 322.5,272.5 322.5,273.5 322.5,274.5C 320.69,271.855 319.69,268.855 319.5,265.5C 319.5,264.5 319.5,263.5 319.5,262.5C 347.074,262.828 374.574,262.495 402,261.5C 402.464,262.094 402.631,262.761 402.5,263.5 Z"/></g>
<g><path style="opacity:1" fill="#88c7a3" d="M 548.5,245.5 C 550.763,250.426 554.096,254.426 558.5,257.5C 557.262,257.81 557.262,258.31 558.5,259C 555.577,261.446 552.577,263.613 549.5,265.5C 548.542,266.962 547.376,268.295 546,269.5C 545.825,272.157 545.992,274.824 546.5,277.5C 542.949,284.056 537.949,289.389 531.5,293.5C 528.665,289.836 526.332,285.836 524.5,281.5C 525.725,274.267 527.725,267.267 530.5,260.5C 535.548,256.874 540.382,252.874 545,248.5C 545.483,247.552 545.649,246.552 545.5,245.5C 546.5,245.5 547.5,245.5 548.5,245.5 Z"/></g>
<g><path style="opacity:1" fill="#f21c24" d="M 153.5,260.5 C 152.585,267.823 155.252,273.156 161.5,276.5C 149.358,275.875 137.191,275.541 125,275.5C 113.812,275.501 102.979,276.168 92.5,277.5C 91.2616,275.786 90.595,273.786 90.5,271.5C 90.2436,269.208 90.5769,267.041 91.5,265C 111.497,264.5 131.497,264.333 151.5,264.5C 151.157,262.517 151.824,261.183 153.5,260.5 Z"/></g>
<g><path style="opacity:1" fill="#f10c19" d="M 268.5,271.5 C 265.253,288.993 254.587,297.826 236.5,298C 198.167,298.667 159.833,298.667 121.5,298C 107.889,296.545 98.2223,289.712 92.5,277.5C 102.979,276.168 113.812,275.501 125,275.5C 137.191,275.541 149.358,275.875 161.5,276.5C 185.836,276.667 210.169,276.5 234.5,276C 238.604,275.729 240.938,273.562 241.5,269.5C 242.404,268.791 242.737,267.791 242.5,266.5C 246.753,267.138 251.086,267.471 255.5,267.5C 259.925,267.463 264.091,266.796 268,265.5C 268.495,267.473 268.662,269.473 268.5,271.5 Z"/></g>
<g><path style="opacity:1" fill="#f30d1a" d="M 398.5,276.5 C 396.187,283.752 394.187,291.085 392.5,298.5C 371.5,298.5 350.5,298.5 329.5,298.5C 327.167,290.5 324.833,282.5 322.5,274.5C 322.5,273.5 322.5,272.5 322.5,271.5C 347.833,271.5 373.167,271.5 398.5,271.5C 398.5,273.167 398.5,274.833 398.5,276.5 Z"/></g>
<g><path style="opacity:1" fill="#f30f1b" d="M 518.5,275.5 C 516.466,283.101 514.133,290.601 511.5,298C 490.503,298.5 469.503,298.667 448.5,298.5C 445.833,289.5 443.167,280.5 440.5,271.5C 440.5,270.167 440.5,268.833 440.5,267.5C 466.842,267.167 493.175,267.5 519.5,268.5C 518.626,270.747 518.292,273.08 518.5,275.5 Z"/></g>
<g><path style="opacity:1" fill="#424040" d="M 549.5,265.5 C 555.489,266.882 561.489,268.382 567.5,270C 570.817,270.498 574.15,270.665 577.5,270.5C 587.167,270.5 596.833,270.5 606.5,270.5C 612.833,270.5 619.167,270.5 625.5,270.5C 625.5,270.833 625.5,271.167 625.5,271.5C 605.164,271.667 584.831,271.5 564.5,271C 561.363,270.399 558.363,269.399 555.5,268C 549,266.5 546.5,269 548,275.5C 549.826,283.802 551.492,292.136 553,300.5C 553.833,301.333 554.667,302.167 555.5,303C 598.165,303.5 640.832,303.667 683.5,303.5C 658.598,304.176 633.598,304.842 608.5,305.5C 591.008,304.503 573.341,304.17 555.5,304.5C 555.167,304.5 554.833,304.5 554.5,304.5C 553.164,302.99 551.997,301.323 551,299.5C 549.556,292.113 548.056,284.78 546.5,277.5C 545.992,274.824 545.825,272.157 546,269.5C 547.376,268.295 548.542,266.962 549.5,265.5 Z"/></g>
<g><path style="opacity:1" fill="#1c1b1a" d="M 579.5,165.5 C 622.835,165.333 666.168,165.5 709.5,166C 712.206,175.663 714.206,185.496 715.5,195.5C 710.641,193.869 705.641,192.702 700.5,192C 673.167,191.333 645.833,191.333 618.5,192C 618,192.5 617.5,193 617,193.5C 616.333,197.167 616.333,200.833 617,204.5C 617.75,205.126 618.584,205.626 619.5,206C 641.5,206.333 663.5,206.667 685.5,207C 696.687,207.5 706.187,211.667 714,219.5C 715.562,221.957 716.562,224.624 717,227.5C 717.667,243.167 717.667,258.833 717,274.5C 715.72,284.45 710.553,291.616 701.5,296C 695.71,298.281 689.71,299.614 683.5,300C 641.167,300.667 598.833,300.667 556.5,300C 554.311,290.221 552.311,280.388 550.5,270.5C 556.404,272.3 562.404,273.8 568.5,275C 594.833,275.667 621.167,275.667 647.5,275C 648.931,274.535 650.097,273.701 651,272.5C 651.667,268.5 651.667,264.5 651,260.5C 650.25,259.874 649.416,259.374 648.5,259C 624.5,258.667 600.5,258.333 576.5,258C 562.482,257.257 553.982,250.09 551,236.5C 550.059,219.78 550.393,203.113 552,186.5C 557.457,174.534 566.623,167.534 579.5,165.5 Z"/></g>
<g><path style="opacity:1" fill="#f10c19" d="M 715.5,264.5 C 715.5,266.833 715.5,269.167 715.5,271.5C 713.696,287.469 704.696,296.302 688.5,298C 644.835,298.5 601.168,298.667 557.5,298.5C 555.771,290.356 554.105,282.19 552.5,274C 552.833,273.5 553.167,273 553.5,272.5C 556.769,273.854 560.102,275.02 563.5,276C 592.167,276.667 620.833,276.667 649.5,276C 652.215,275.125 653.548,273.292 653.5,270.5C 654.222,270.082 654.722,269.416 655,268.5C 674.599,270.481 694.433,271.147 714.5,270.5C 714.205,268.265 714.539,266.265 715.5,264.5 Z"/></g>
<g><path style="opacity:1" fill="#f2292d" d="M 715.5,258.5 C 715.5,260.5 715.5,262.5 715.5,264.5C 714.539,266.265 714.205,268.265 714.5,270.5C 694.433,271.147 674.599,270.481 655,268.5C 654.722,269.416 654.222,270.082 653.5,270.5C 653.5,267.167 653.5,263.833 653.5,260.5C 674.069,259.822 694.735,259.156 715.5,258.5 Z"/></g>
<g><path style="opacity:1" fill="#ee4641" d="M 715.5,249.5 C 715.5,252.5 715.5,255.5 715.5,258.5C 694.735,259.156 674.069,259.822 653.5,260.5C 652.251,258.864 650.584,257.697 648.5,257C 624.167,256.667 599.833,256.333 575.5,256C 570.042,255.238 565.042,253.405 560.5,250.5C 560.611,249.883 560.944,249.383 561.5,249C 612.904,248.172 664.237,248.338 715.5,249.5 Z"/></g>
<g><path style="opacity:1" fill="#ef564c" d="M 715.5,249.5 C 664.237,248.338 612.904,248.172 561.5,249C 560.944,249.383 560.611,249.883 560.5,250.5C 558.457,249.421 557.124,247.754 556.5,245.5C 609.156,243.504 662.156,242.838 715.5,243.5C 715.5,245.5 715.5,247.5 715.5,249.5 Z"/></g>
<g><path style="opacity:1" fill="#e96052" d="M 715.5,229.5 C 716.833,243.5 716.833,257.5 715.5,271.5C 715.5,269.167 715.5,266.833 715.5,264.5C 715.5,262.5 715.5,260.5 715.5,258.5C 715.5,255.5 715.5,252.5 715.5,249.5C 715.5,247.5 715.5,245.5 715.5,243.5C 662.156,242.838 609.156,243.504 556.5,245.5C 555.326,244.486 554.66,243.153 554.5,241.5C 554.5,240.167 554.5,238.833 554.5,237.5C 607.833,237.5 661.167,237.5 714.5,237.5C 714.5,236.5 714.5,235.5 714.5,234.5C 715.451,233.081 715.784,231.415 715.5,229.5 Z"/></g>
<g><path style="opacity:1" fill="#ee6f5d" d="M 552.5,230.5 C 552.833,230.5 553.167,230.5 553.5,230.5C 553.611,231.117 553.944,231.617 554.5,232C 608.176,231.837 661.509,232.67 714.5,234.5C 714.5,235.5 714.5,236.5 714.5,237.5C 661.167,237.5 607.833,237.5 554.5,237.5C 554.5,238.833 554.5,240.167 554.5,241.5C 552.918,238.124 552.251,234.458 552.5,230.5 Z"/></g>
<g><path style="opacity:1" fill="#ee7c6a" d="M 715.5,229.5 C 715.784,231.415 715.451,233.081 714.5,234.5C 661.509,232.67 608.176,231.837 554.5,232C 553.944,231.617 553.611,231.117 553.5,230.5C 579.825,229.167 606.492,228.5 633.5,228.5C 660.875,228.508 688.208,228.842 715.5,229.5 Z"/></g>
<g><path style="opacity:1" fill="#ef8b7b" d="M 713.5,223.5 C 715.074,225.102 715.741,227.102 715.5,229.5C 688.208,228.842 660.875,228.508 633.5,228.5C 606.492,228.5 579.825,229.167 553.5,230.5C 553.167,230.5 552.833,230.5 552.5,230.5C 552.5,228.5 552.5,226.5 552.5,224.5C 552.833,224.5 553.167,224.5 553.5,224.5C 607.003,224.832 660.336,224.499 713.5,223.5 Z"/></g>
<g><path style="opacity:1" fill="#f19b8d" d="M 712.5,221.5 C 713.338,221.842 713.672,222.508 713.5,223.5C 660.336,224.499 607.003,224.832 553.5,224.5C 553.5,222.833 553.5,221.167 553.5,219.5C 605.072,219.831 656.572,219.497 708,218.5C 709.333,219.833 710.667,221.167 712,222.5C 712.399,222.272 712.565,221.938 712.5,221.5 Z"/></g>
<g><path style="opacity:1" fill="#f3afa3" d="M 553.5,214.5 C 603.501,214.333 653.501,214.5 703.5,215C 704.416,215.374 705.25,215.874 706,216.5C 706.399,216.272 706.565,215.938 706.5,215.5C 709.5,216.5 711.5,218.5 712.5,221.5C 712.565,221.938 712.399,222.272 712,222.5C 710.667,221.167 709.333,219.833 708,218.5C 656.572,219.497 605.072,219.831 553.5,219.5C 553.5,221.167 553.5,222.833 553.5,224.5C 553.167,224.5 552.833,224.5 552.5,224.5C 552.5,221.833 552.5,219.167 552.5,216.5C 553.338,216.158 553.672,215.492 553.5,214.5 Z"/></g>
<g><path style="opacity:1" fill="#f4c0b7" d="M 680.5,208.5 C 690.032,208.086 698.699,210.419 706.5,215.5C 706.565,215.938 706.399,216.272 706,216.5C 705.25,215.874 704.416,215.374 703.5,215C 653.501,214.5 603.501,214.333 553.5,214.5C 553.5,213.167 553.5,211.833 553.5,210.5C 596.18,211.161 638.513,210.495 680.5,208.5 Z"/></g>
<g><path style="opacity:1" fill="#f7d3cd" d="M 614.5,204.5 C 616.262,206.7 618.596,207.867 621.5,208C 641.164,208.5 660.831,208.667 680.5,208.5C 638.513,210.495 596.18,211.161 553.5,210.5C 553.5,211.833 553.5,213.167 553.5,214.5C 553.672,215.492 553.338,216.158 552.5,216.5C 552.5,213.833 552.5,211.167 552.5,208.5C 553.451,207.081 553.784,205.415 553.5,203.5C 573.9,202.852 594.067,203.519 614,205.5C 614.399,205.272 614.565,204.938 614.5,204.5 Z"/></g>
<g><path style="opacity:1" fill="#f6f3f3" d="M 614.5,204.5 C 614.565,204.938 614.399,205.272 614,205.5C 594.067,203.519 573.9,202.852 553.5,203.5C 553.784,205.415 553.451,207.081 552.5,208.5C 548.739,186.827 557.406,173.327 578.5,168C 621.837,167.167 665.171,167.333 708.5,168.5C 710.68,176.398 712.346,184.398 713.5,192.5C 709.378,192.303 705.378,191.47 701.5,190C 673.833,189.333 646.167,189.333 618.5,190C 617.069,190.465 615.903,191.299 615,192.5C 614.501,196.486 614.334,200.486 614.5,204.5 Z"/></g>
<g><path style="opacity:1" fill="#453c40" d="M 244.5,302.5 C 240.764,303.989 236.764,304.656 232.5,304.5C 217.167,304.5 201.833,304.5 186.5,304.5C 167.659,304.83 148.993,304.497 130.5,303.5C 168.517,303.796 206.517,303.463 244.5,302.5 Z"/></g>
<g><path style="opacity:1" fill="#565656" d="M 447.5,303.5 C 469.167,303.5 490.833,303.5 512.5,303.5C 493.674,304.497 474.674,304.83 455.5,304.5C 455.5,311.833 455.5,319.167 455.5,326.5C 462.5,326.5 469.5,326.5 476.5,326.5C 475.081,327.451 473.415,327.784 471.5,327.5C 465.833,327.5 460.167,327.5 454.5,327.5C 454.5,320.167 454.5,312.833 454.5,305.5C 452.5,305.5 450.5,305.5 448.5,305.5C 448.167,304.833 447.833,304.167 447.5,303.5 Z"/></g>
<g><path style="opacity:1" fill="#898c89" d="M 555.5,305.5 C 555.5,305.167 555.5,304.833 555.5,304.5C 573.341,304.17 591.008,304.503 608.5,305.5C 608.5,306.167 608.167,306.5 607.5,306.5C 590.341,305.503 573.008,305.17 555.5,305.5 Z"/></g>
<g><path style="opacity:1" fill="#f5f9f6" d="M 448.5,305.5 C 450.5,305.5 452.5,305.5 454.5,305.5C 454.5,312.833 454.5,320.167 454.5,327.5C 460.167,327.5 465.833,327.5 471.5,327.5C 466.289,328.222 460.956,329.055 455.5,330C 454.748,330.671 454.414,331.504 454.5,332.5C 447.167,332.5 439.833,332.5 432.5,332.5C 437.57,323.363 442.903,314.363 448.5,305.5 Z"/></g>
<g><path style="opacity:1" fill="#b6dcc6" d="M 546.5,277.5 C 548.056,284.78 549.556,292.113 551,299.5C 551.997,301.323 553.164,302.99 554.5,304.5C 550.527,307.806 546.86,311.473 543.5,315.5C 538.995,308.495 534.995,301.161 531.5,293.5C 537.949,289.389 542.949,284.056 546.5,277.5 Z"/></g>
<g><path style="opacity:1" fill="#f3f8f5" d="M 555.5,305.5 C 573.008,305.17 590.341,305.503 607.5,306.5C 595.089,314.718 581.422,317.718 566.5,315.5C 561.489,315.666 556.489,315.499 551.5,315C 559.983,316.533 566.649,313.866 571.5,307C 565.984,306.827 560.651,306.327 555.5,305.5 Z"/></g>
<g><path style="opacity:1" fill="#c8dfd2" d="M 554.5,304.5 C 554.833,304.5 555.167,304.5 555.5,304.5C 555.5,304.833 555.5,305.167 555.5,305.5C 560.651,306.327 565.984,306.827 571.5,307C 566.649,313.866 559.983,316.533 551.5,315C 556.489,315.499 561.489,315.666 566.5,315.5C 558.833,316.833 551.167,316.833 543.5,315.5C 546.86,311.473 550.527,307.806 554.5,304.5 Z"/></g>
<g><path style="opacity:1" fill="#349f62" d="M 244.5,302.5 C 245.675,302.281 246.675,302.614 247.5,303.5C 242.805,312.228 238.138,320.895 233.5,329.5C 231.533,326.421 229.2,323.588 226.5,321C 220.981,316.738 215.648,312.238 210.5,307.5C 218.062,307.018 225.395,306.018 232.5,304.5C 236.764,304.656 240.764,303.989 244.5,302.5 Z"/></g>
<g><path style="opacity:0.675" fill="#131d16" d="M 365.5,331.5 C 365.158,332.338 364.492,332.672 363.5,332.5C 363.5,332.167 363.5,331.833 363.5,331.5C 363.5,326.5 363.5,321.5 363.5,316.5C 357.167,316.5 350.833,316.5 344.5,316.5C 336.833,316.5 329.167,316.5 321.5,316.5C 310.5,316.5 299.5,316.5 288.5,316.5C 282.833,316.5 277.167,316.5 271.5,316.5C 264.492,316.334 257.492,316.5 250.5,317C 247.68,322.142 245.013,327.308 242.5,332.5C 241.508,332.672 240.842,332.338 240.5,331.5C 243.615,326.107 246.615,320.607 249.5,315C 288.165,314.5 326.832,314.333 365.5,314.5C 365.5,320.167 365.5,325.833 365.5,331.5 Z"/></g>
<g><path style="opacity:1" fill="#178e49" d="M 186.5,304.5 C 201.833,304.5 217.167,304.5 232.5,304.5C 225.395,306.018 218.062,307.018 210.5,307.5C 215.648,312.238 220.981,316.738 226.5,321C 229.2,323.588 231.533,326.421 233.5,329.5C 233.443,330.609 233.11,331.609 232.5,332.5C 221.833,332.5 211.167,332.5 200.5,332.5C 195.833,323.167 191.167,313.833 186.5,304.5 Z"/></g>
<g><path style="opacity:1" fill="#6db98d" d="M 288.5,316.5 C 299.5,316.5 310.5,316.5 321.5,316.5C 320.791,317.404 319.791,317.737 318.5,317.5C 319.059,322.069 320.392,326.402 322.5,330.5C 324.026,330.994 325.359,331.661 326.5,332.5C 312.833,332.5 299.167,332.5 285.5,332.5C 285.5,331.833 285.167,331.5 284.5,331.5C 286.369,330.835 288.369,330.169 290.5,329.5C 288.348,325.27 287.681,320.937 288.5,316.5 Z"/></g>
<g><path style="opacity:1" fill="#139149" d="M 344.5,316.5 C 350.833,316.5 357.167,316.5 363.5,316.5C 363.5,321.5 363.5,326.5 363.5,331.5C 357.158,331.666 350.825,331.5 344.5,331C 345.167,330.667 345.833,330.333 346.5,330C 345.472,326.221 344.139,322.555 342.5,319C 343.381,318.292 344.047,317.458 344.5,316.5 Z"/></g>
<g><path style="opacity:1" fill="#9ed2b4" d="M 271.5,316.5 C 277.167,316.5 282.833,316.5 288.5,316.5C 287.681,320.937 288.348,325.27 290.5,329.5C 288.369,330.169 286.369,330.835 284.5,331.5C 278.824,331.666 273.157,331.499 267.5,331C 268.167,330.667 268.833,330.333 269.5,330C 268.269,325.909 267.269,321.743 266.5,317.5C 268.415,317.784 270.081,317.451 271.5,316.5 Z"/></g>
<g><path style="opacity:1" fill="#379f62" d="M 321.5,316.5 C 329.167,316.5 336.833,316.5 344.5,316.5C 344.047,317.458 343.381,318.292 342.5,319C 344.139,322.555 345.472,326.221 346.5,330C 345.833,330.333 345.167,330.667 344.5,331C 350.825,331.5 357.158,331.666 363.5,331.5C 363.5,331.833 363.5,332.167 363.5,332.5C 351.167,332.5 338.833,332.5 326.5,332.5C 325.359,331.661 324.026,330.994 322.5,330.5C 320.392,326.402 319.059,322.069 318.5,317.5C 319.791,317.737 320.791,317.404 321.5,316.5 Z"/></g>
<g><path style="opacity:1" fill="#c0e0ce" d="M 271.5,316.5 C 270.081,317.451 268.415,317.784 266.5,317.5C 267.269,321.743 268.269,325.909 269.5,330C 268.833,330.333 268.167,330.667 267.5,331C 273.157,331.499 278.824,331.666 284.5,331.5C 285.167,331.5 285.5,331.833 285.5,332.5C 271.167,332.5 256.833,332.5 242.5,332.5C 245.013,327.308 247.68,322.142 250.5,317C 257.492,316.5 264.492,316.334 271.5,316.5 Z"/></g>
<g><path style="opacity:1" fill="#47a56e" d="M 499.5,326.5 C 510.654,325.505 521.988,325.172 533.5,325.5C 542.839,325.334 552.173,325.5 561.5,326C 558.175,325.775 555.842,327.108 554.5,330C 558.637,330.839 562.637,331.673 566.5,332.5C 554.833,332.5 543.167,332.5 531.5,332.5C 528.759,331.917 526.092,330.917 523.5,329.5C 524.381,328.029 525.714,327.196 527.5,327C 518.173,326.5 508.839,326.334 499.5,326.5 Z"/></g>
<g><path style="opacity:1" fill="#178a46" d="M 594.5,332.5 C 585.167,332.5 575.833,332.5 566.5,332.5C 562.637,331.673 558.637,330.839 554.5,330C 555.842,327.108 558.175,325.775 561.5,326C 552.173,325.5 542.839,325.334 533.5,325.5C 548.661,324.669 563.995,324.169 579.5,324C 586.866,322.77 594.2,321.77 601.5,321C 599.03,324.778 596.697,328.611 594.5,332.5 Z"/></g>
<g><path style="opacity:1" fill="#7dc199" d="M 499.5,326.5 C 508.839,326.334 518.173,326.5 527.5,327C 525.714,327.196 524.381,328.029 523.5,329.5C 526.092,330.917 528.759,331.917 531.5,332.5C 517.5,332.5 503.5,332.5 489.5,332.5C 492.337,330.598 495.671,329.931 499.5,330.5C 499.5,329.167 499.5,327.833 499.5,326.5 Z"/></g>
<g><path style="opacity:1" fill="#b2dac3" d="M 476.5,326.5 C 484.167,326.5 491.833,326.5 499.5,326.5C 499.5,327.833 499.5,329.167 499.5,330.5C 495.671,329.931 492.337,330.598 489.5,332.5C 477.833,332.5 466.167,332.5 454.5,332.5C 454.414,331.504 454.748,330.671 455.5,330C 460.956,329.055 466.289,328.222 471.5,327.5C 473.415,327.784 475.081,327.451 476.5,326.5 Z"/></g>
<g><path style="opacity:0.878" fill="#e81923" d="M 198.5,331.5 C 198.842,332.338 199.508,332.672 200.5,332.5C 211.167,332.5 221.833,332.5 232.5,332.5C 233.609,332.443 234.609,332.11 235.5,331.5C 237.167,331.5 238.833,331.5 240.5,331.5C 240.842,332.338 241.508,332.672 242.5,332.5C 256.833,332.5 271.167,332.5 285.5,332.5C 299.167,332.5 312.833,332.5 326.5,332.5C 338.833,332.5 351.167,332.5 363.5,332.5C 364.492,332.672 365.158,332.338 365.5,331.5C 387.167,331.5 408.833,331.5 430.5,331.5C 430.842,332.338 431.508,332.672 432.5,332.5C 439.833,332.5 447.167,332.5 454.5,332.5C 466.167,332.5 477.833,332.5 489.5,332.5C 503.5,332.5 517.5,332.5 531.5,332.5C 543.167,332.5 554.833,332.5 566.5,332.5C 575.833,332.5 585.167,332.5 594.5,332.5C 595.609,332.443 596.609,332.11 597.5,331.5C 653.199,331.025 708.866,331.525 764.5,333C 776.478,336.31 784.645,343.81 789,355.5C 793.931,372.489 790.431,387.322 778.5,400C 772.652,404.618 765.986,407.285 758.5,408C 688.501,408.5 618.501,408.667 548.5,408.5C 548.158,407.662 547.492,407.328 546.5,407.5C 532.5,407.5 518.5,407.5 504.5,407.5C 496.5,407.5 488.5,407.5 480.5,407.5C 473.167,407.5 465.833,407.5 458.5,407.5C 449.833,407.5 441.167,407.5 432.5,407.5C 431.209,407.263 430.209,407.596 429.5,408.5C 408.5,408.5 387.5,408.5 366.5,408.5C 366.158,407.662 365.492,407.328 364.5,407.5C 357.167,407.5 349.833,407.5 342.5,407.5C 335.5,407.5 328.5,407.5 321.5,407.5C 307.167,407.5 292.833,407.5 278.5,407.5C 268.5,407.5 258.5,407.5 248.5,407.5C 247.209,407.263 246.209,407.596 245.5,408.5C 177.166,408.667 108.833,408.5 40.5,408C 24.0091,405.178 13.5091,395.678 9,379.5C 5.46245,358.742 12.9624,343.576 31.5,334C 34.7895,333.118 38.1228,332.452 41.5,332C 93.8323,331.5 146.166,331.333 198.5,331.5 Z"/></g>
<g><path style="opacity:1" fill="#faf9f9" d="M 38.5,339.5 C 278.5,339.333 518.5,339.5 758.5,340C 778.754,345.674 786.92,358.841 783,379.5C 778.677,389.823 771.177,396.656 760.5,400C 519.833,400.667 279.167,400.667 38.5,400C 19.6325,392.767 12.4658,379.267 17,359.5C 21.1713,349.491 28.338,342.825 38.5,339.5 Z"/></g>
<g><path style="opacity:1" fill="#0b0b0b" d="M 224.5,362.5 C 222.5,362.5 220.5,362.5 218.5,362.5C 218.768,360.901 218.434,359.568 217.5,358.5C 215.061,357.733 213.728,358.9 213.5,362C 215.154,366.333 217.654,370.167 221,373.5C 222.881,386.288 217.715,391.455 205.5,389C 202.735,386.005 201.902,382.505 203,378.5C 205.041,377.577 207.208,377.244 209.5,377.5C 209.5,379.5 209.5,381.5 209.5,383.5C 214.213,383.532 215.713,381.199 214,376.5C 211.425,373.681 209.092,370.681 207,367.5C 205.123,360.944 206.957,355.777 212.5,352C 221.7,349.749 225.7,353.249 224.5,362.5 Z"/></g>
<g><path style="opacity:1" fill="#111111" d="M 370.5,351.5 C 380.15,349.367 384.317,353.034 383,362.5C 380.959,363.423 378.792,363.756 376.5,363.5C 376.5,361.5 376.5,359.5 376.5,357.5C 373.266,357.237 371.932,358.737 372.5,362C 372.667,363.167 372.833,364.333 373,365.5C 382.296,372.872 382.796,380.705 374.5,389C 364.231,392.174 359.897,388.341 361.5,377.5C 363.833,377.5 366.167,377.5 368.5,377.5C 368.5,379.5 368.5,381.5 368.5,383.5C 369.822,383.67 370.989,383.337 372,382.5C 373.114,377.388 371.447,373.388 367,370.5C 363.015,363.229 364.182,356.895 370.5,351.5 Z"/></g>
<g><path style="opacity:1" fill="#0d0d0d" d="M 464.5,351.5 C 473.702,349.741 477.702,353.407 476.5,362.5C 474.143,362.663 471.81,362.497 469.5,362C 471,359.833 470.5,358.333 468,357.5C 465.702,359.304 465.035,361.637 466,364.5C 467.29,366.792 468.957,368.792 471,370.5C 475.368,378.432 473.868,384.932 466.5,390C 457.046,391.377 453.046,387.21 454.5,377.5C 456.833,377.5 459.167,377.5 461.5,377.5C 461.5,379.5 461.5,381.5 461.5,383.5C 464.352,383.648 466.019,382.314 466.5,379.5C 464.234,375.391 461.734,371.391 459,367.5C 457.016,360.66 458.85,355.327 464.5,351.5 Z"/></g>
<g><path style="opacity:1" fill="#0c0c0c" d="M 529.5,362.5 C 527.265,362.795 525.265,362.461 523.5,361.5C 523.778,359.654 523.111,358.32 521.5,357.5C 519.495,358.337 518.495,359.837 518.5,362C 520.354,366.196 522.854,370.03 526,373.5C 528.289,384.86 523.789,390.36 512.5,390C 511.069,389.535 509.903,388.701 509,387.5C 508.502,384.183 508.335,380.85 508.5,377.5C 510.924,377.192 513.257,377.526 515.5,378.5C 514.691,380.071 514.357,381.738 514.5,383.5C 519.213,383.532 520.713,381.199 519,376.5C 516.277,373.443 513.944,370.11 512,366.5C 510.904,355.595 515.738,350.762 526.5,352C 528.333,352.5 529.5,353.667 530,355.5C 530.796,358.039 530.629,360.372 529.5,362.5 Z"/></g>
<g><path style="opacity:1" fill="#0b0b0b" d="M 631.5,351.5 C 640.702,349.741 644.702,353.407 643.5,362.5C 641.143,362.663 638.81,362.497 636.5,362C 637.781,357.611 636.614,356.778 633,359.5C 632.333,361.167 632.333,362.833 633,364.5C 635.723,367.557 638.056,370.89 640,374.5C 641.588,385.908 636.755,391.074 625.5,390C 621.965,387.293 620.798,383.793 622,379.5C 623.754,377.75 625.921,377.083 628.5,377.5C 628.5,379.5 628.5,381.5 628.5,383.5C 631.524,383.825 633.191,382.492 633.5,379.5C 631.234,375.391 628.734,371.391 626,367.5C 624.212,360.776 626.045,355.442 631.5,351.5 Z"/></g>
<g><path style="opacity:1" fill="#0e0e0e" d="M 719.5,351.5 C 730.229,350.235 734.229,354.902 731.5,365.5C 729.167,365.5 726.833,365.5 724.5,365.5C 725.136,362.894 725.136,360.394 724.5,358C 722.232,357.91 720.732,359.077 720,361.5C 719.264,367.915 718.098,374.248 716.5,380.5C 716.747,383.082 718.08,383.915 720.5,383C 721.713,380.313 722.38,377.48 722.5,374.5C 724.924,374.192 727.257,374.526 729.5,375.5C 729.163,381.726 726.496,386.559 721.5,390C 714.697,391.773 710.697,389.273 709.5,382.5C 710.731,375.51 711.898,368.51 713,361.5C 713.949,357.243 716.115,353.909 719.5,351.5 Z"/></g>
<g><path style="opacity:1" fill="#0e0e0e" d="M 52.5,351.5 C 54.924,351.192 57.2573,351.526 59.5,352.5C 57.1816,362.729 55.515,373.062 54.5,383.5C 56.451,383.773 57.951,383.107 59,381.5C 60.667,371.832 62.3337,362.165 64,352.5C 66.0408,351.577 68.2075,351.244 70.5,351.5C 68.9935,362.21 67.1601,372.876 65,383.5C 60.8324,390.728 55.3324,392.061 48.5,387.5C 47.9049,385.56 47.5716,383.56 47.5,381.5C 48.9527,371.45 50.6194,361.45 52.5,351.5 Z"/></g>
<g><path style="opacity:1" fill="#0d0d0d" d="M 89.5,360.5 C 89.1866,363.247 89.52,365.914 90.5,368.5C 91.2975,368.043 91.6309,367.376 91.5,366.5C 92.0582,361.484 92.7249,356.484 93.5,351.5C 95.924,351.192 98.2573,351.526 100.5,352.5C 97.4134,364.686 95.0801,377.019 93.5,389.5C 91.1667,389.5 88.8333,389.5 86.5,389.5C 86.3204,383.088 85.4871,376.754 84,370.5C 82.3528,376.753 81.1862,383.087 80.5,389.5C 78.5,389.5 76.5,389.5 74.5,389.5C 75.6831,377.068 77.5164,364.735 80,352.5C 83.0567,351.549 86.2234,351.216 89.5,351.5C 89.5,354.5 89.5,357.5 89.5,360.5 Z"/></g>
<g><path style="opacity:1" fill="#0e0e0e" d="M 109.5,351.5 C 111.833,351.5 114.167,351.5 116.5,351.5C 114.283,364.134 112.283,376.801 110.5,389.5C 108.167,389.5 105.833,389.5 103.5,389.5C 105.181,376.779 107.181,364.112 109.5,351.5 Z"/></g>
<g><path style="opacity:1" fill="#0a0a0a" d="M 124.5,363.5 C 125.482,360.038 125.815,356.371 125.5,352.5C 127.5,352.5 129.5,352.5 131.5,352.5C 131.5,357.5 131.5,362.5 131.5,367.5C 131.336,370.187 131.503,372.854 132,375.5C 134.599,367.87 137.099,360.203 139.5,352.5C 141.833,351.167 144.167,351.167 146.5,352.5C 142.092,364.722 138.092,377.056 134.5,389.5C 131.167,389.5 127.833,389.5 124.5,389.5C 124.5,380.833 124.5,372.167 124.5,363.5 Z"/></g>
<g><path style="opacity:1" fill="#0e0e0e" d="M 154.5,351.5 C 160.167,351.5 165.833,351.5 171.5,351.5C 171.756,353.792 171.423,355.959 170.5,358C 167.183,358.498 163.85,358.665 160.5,358.5C 159.841,361.455 159.508,364.455 159.5,367.5C 161.833,367.5 164.167,367.5 166.5,367.5C 166.5,369.5 166.5,371.5 166.5,373.5C 163.5,373.5 160.5,373.5 157.5,373.5C 156.949,376.807 156.616,380.14 156.5,383.5C 159.5,383.5 162.5,383.5 165.5,383.5C 165.5,385.5 165.5,387.5 165.5,389.5C 159.833,389.5 154.167,389.5 148.5,389.5C 150.221,376.787 152.221,364.12 154.5,351.5 Z"/></g>
<g><path style="opacity:1" fill="#0d0d0d" d="M 180.5,351.5 C 198.631,349.29 202.964,355.957 193.5,371.5C 194.324,377.457 194.324,383.457 193.5,389.5C 191.167,389.5 188.833,389.5 186.5,389.5C 186.916,384.507 187.249,379.507 187.5,374.5C 186.167,374.5 184.833,374.5 183.5,374.5C 182.833,379.5 182.167,384.5 181.5,389.5C 179.167,389.5 176.833,389.5 174.5,389.5C 176.407,376.815 178.407,364.148 180.5,351.5 Z"/></g>
<g><path style="opacity:1" fill="#121212" d="M 239.5,351.5 C 242.833,351.5 246.167,351.5 249.5,351.5C 249.5,364.167 249.5,376.833 249.5,389.5C 246.833,389.5 244.167,389.5 241.5,389.5C 241.5,387.5 241.5,385.5 241.5,383.5C 236.95,382.724 234.284,384.558 233.5,389C 231.527,389.495 229.527,389.662 227.5,389.5C 231.302,376.762 235.302,364.095 239.5,351.5 Z"/></g>
<g><path style="opacity:1" fill="#090909" d="M 263.5,351.5 C 265.833,351.5 268.167,351.5 270.5,351.5C 268.401,362.094 266.734,372.76 265.5,383.5C 268.572,383.183 271.572,383.516 274.5,384.5C 273.691,386.071 273.357,387.738 273.5,389.5C 268.167,389.5 262.833,389.5 257.5,389.5C 259.37,376.815 261.37,364.149 263.5,351.5 Z"/></g>
<g><path style="opacity:1" fill="#0c0c0c" d="M 320.5,389.5 C 317.833,389.5 315.167,389.5 312.5,389.5C 312.666,385.486 312.499,381.486 312,377.5C 311.392,379.154 310.892,380.821 310.5,382.5C 309.59,388.653 305.924,390.987 299.5,389.5C 300.362,376.845 301.029,364.179 301.5,351.5C 303.833,351.5 306.167,351.5 308.5,351.5C 308.331,358.524 308.164,365.524 308,372.5C 309.526,365.728 311.359,359.062 313.5,352.5C 315.833,351.167 318.167,351.167 320.5,352.5C 319.362,359.456 318.862,366.456 319,373.5C 321.128,366.521 323.128,359.521 325,352.5C 327.139,351.231 329.305,351.231 331.5,352.5C 327.626,364.786 323.96,377.119 320.5,389.5 Z"/></g>
<g><path style="opacity:1" fill="#0d0d0d" d="M 343.5,352.5 C 346.5,352.5 349.5,352.5 352.5,352.5C 352.5,354.833 352.5,357.167 352.5,359.5C 352.5,369.5 352.5,379.5 352.5,389.5C 350.167,389.5 347.833,389.5 345.5,389.5C 345.5,387.5 345.5,385.5 345.5,383.5C 340.925,382.343 338.258,384.01 337.5,388.5C 335.604,389.466 333.604,389.799 331.5,389.5C 334.724,376.83 338.724,364.496 343.5,352.5 Z"/></g>
<g><path style="opacity:1" fill="#101010" d="M 392.5,351.5 C 398.868,351.17 405.202,351.504 411.5,352.5C 410.652,354.409 410.318,356.409 410.5,358.5C 408.167,358.5 405.833,358.5 403.5,358.5C 402.003,368.15 400.503,377.816 399,387.5C 396.879,389.457 394.379,389.957 391.5,389C 393.673,378.964 395.339,368.798 396.5,358.5C 394.833,358.5 393.167,358.5 391.5,358.5C 391.298,356.05 391.631,353.717 392.5,351.5 Z"/></g>
<g><path style="opacity:1" fill="#0c0c0c" d="M 419.5,351.5 C 425.206,351.171 430.872,351.505 436.5,352.5C 435.652,354.409 435.318,356.409 435.5,358.5C 431.833,358.5 428.167,358.5 424.5,358.5C 424.296,361.518 423.963,364.518 423.5,367.5C 426.247,367.187 428.914,367.52 431.5,368.5C 430.691,370.071 430.357,371.738 430.5,373.5C 427.753,373.187 425.086,373.52 422.5,374.5C 421.833,377.167 421.167,379.833 420.5,382.5C 423.768,383.487 427.102,383.82 430.5,383.5C 430.5,385.5 430.5,387.5 430.5,389.5C 424.833,389.5 419.167,389.5 413.5,389.5C 414.667,376.663 416.667,363.996 419.5,351.5 Z"/></g>
<g><path style="opacity:1" fill="#0e0e0e" d="M 492.5,358.5 C 492.192,360.924 492.526,363.257 493.5,365.5C 494.107,365.376 494.44,365.043 494.5,364.5C 496.154,360.521 497.821,356.521 499.5,352.5C 501.833,351.167 504.167,351.167 506.5,352.5C 502.939,360.622 499.106,368.622 495,376.5C 494.004,380.816 493.17,385.149 492.5,389.5C 490.076,389.808 487.743,389.474 485.5,388.5C 487.832,376.463 487.499,364.463 484.5,352.5C 487.086,351.52 489.753,351.187 492.5,351.5C 492.5,353.833 492.5,356.167 492.5,358.5 Z"/></g>
<g><path style="opacity:1" fill="#111111" d="M 538.5,351.5 C 545.2,351.17 551.866,351.503 558.5,352.5C 557.652,354.409 557.318,356.409 557.5,358.5C 555.167,358.5 552.833,358.5 550.5,358.5C 548.705,368.809 547.038,379.142 545.5,389.5C 543.167,389.5 540.833,389.5 538.5,389.5C 540.275,379.185 541.941,368.852 543.5,358.5C 541.5,358.5 539.5,358.5 537.5,358.5C 537.993,356.194 538.326,353.861 538.5,351.5 Z"/></g>
<g><path style="opacity:1" fill="#0d0d0d" d="M 566.5,351.5 C 572.206,351.171 577.872,351.505 583.5,352.5C 582.652,354.409 582.318,356.409 582.5,358.5C 578.833,358.5 575.167,358.5 571.5,358.5C 571.492,361.545 571.159,364.545 570.5,367.5C 573.187,367.336 575.854,367.503 578.5,368C 577.594,369.699 577.261,371.533 577.5,373.5C 574.813,373.336 572.146,373.503 569.5,374C 568.39,377.049 567.723,380.216 567.5,383.5C 570.898,383.18 574.232,383.513 577.5,384.5C 576.691,386.071 576.357,387.738 576.5,389.5C 570.833,389.5 565.167,389.5 559.5,389.5C 561.466,376.732 563.799,364.065 566.5,351.5 Z"/></g>
<g><path style="opacity:1" fill="#0a0a0a" d="M 592.5,351.5 C 595.5,351.5 598.5,351.5 601.5,351.5C 601.334,358.508 601.5,365.508 602,372.5C 603.866,365.735 606.033,359.068 608.5,352.5C 611.428,351.516 614.428,351.183 617.5,351.5C 615.499,364.169 613.499,376.836 611.5,389.5C 609.076,389.808 606.743,389.474 604.5,388.5C 605.882,383.543 606.716,378.543 607,373.5C 605.337,378.489 603.67,383.489 602,388.5C 599.959,389.423 597.792,389.756 595.5,389.5C 595.772,368.334 594.772,368.334 592.5,389.5C 590.143,389.663 587.81,389.497 585.5,389C 587.695,376.469 590.028,363.969 592.5,351.5 Z"/></g>
<g><path style="opacity:1" fill="#0e0e0e" d="M 669.5,351.5 C 671.924,351.192 674.257,351.526 676.5,352.5C 674.008,364.8 671.675,377.134 669.5,389.5C 667.076,389.808 664.743,389.474 662.5,388.5C 664.514,376.078 666.847,363.745 669.5,351.5 Z"/></g>
<g><path style="opacity:1" fill="#0d0d0d" d="M 686.5,351.5 C 689.167,351.5 691.833,351.5 694.5,351.5C 694.927,373.351 696.427,373.684 699,352.5C 701.041,351.577 703.208,351.244 705.5,351.5C 703.22,364.126 701.22,376.793 699.5,389.5C 696.833,389.5 694.167,389.5 691.5,389.5C 690.905,361.754 689.239,361.754 686.5,389.5C 684.167,389.5 681.833,389.5 679.5,389.5C 681.191,376.685 683.524,364.019 686.5,351.5 Z"/></g>
<g><path style="opacity:1" fill="#5f5f5f" d="M 343.5,352.5 C 346.625,351.521 349.958,351.187 353.5,351.5C 353.806,354.385 353.473,357.052 352.5,359.5C 352.5,357.167 352.5,354.833 352.5,352.5C 349.5,352.5 346.5,352.5 343.5,352.5 Z"/></g>
<g><path style="opacity:1" fill="#747474" d="M 131.5,367.5 C 131.5,362.5 131.5,357.5 131.5,352.5C 129.5,352.5 127.5,352.5 125.5,352.5C 125.815,356.371 125.482,360.038 124.5,363.5C 124.5,359.5 124.5,355.5 124.5,351.5C 127.167,351.5 129.833,351.5 132.5,351.5C 132.821,357.026 132.488,362.36 131.5,367.5 Z"/></g>
<g><path style="opacity:1" fill="#e6e6e6" d="M 186.5,358.5 C 187.833,358.5 189.167,358.5 190.5,358.5C 190.664,361.187 190.497,363.854 190,366.5C 188.89,368.037 187.39,368.703 185.5,368.5C 185.46,365.119 185.793,361.786 186.5,358.5 Z"/></g>
<g><path style="opacity:1" fill="#828282" d="M 217.5,358.5 C 218.434,359.568 218.768,360.901 218.5,362.5C 220.5,362.5 222.5,362.5 224.5,362.5C 222.393,363.468 220.059,363.802 217.5,363.5C 217.5,361.833 217.5,360.167 217.5,358.5 Z"/></g>
<g><path style="opacity:1" fill="#818181" d="M 523.5,361.5 C 525.265,362.461 527.265,362.795 529.5,362.5C 527.307,363.797 524.973,363.797 522.5,362.5C 522.624,361.893 522.957,361.56 523.5,361.5 Z"/></g>
<g><path style="opacity:1" fill="#797979" d="M 492.5,358.5 C 493.167,360.5 493.833,362.5 494.5,364.5C 494.44,365.043 494.107,365.376 493.5,365.5C 492.526,363.257 492.192,360.924 492.5,358.5 Z"/></g>
<g><path style="opacity:1" fill="#686868" d="M 89.5,360.5 C 90.1667,362.5 90.8333,364.5 91.5,366.5C 91.6309,367.376 91.2975,368.043 90.5,368.5C 89.52,365.914 89.1866,363.247 89.5,360.5 Z"/></g>
<g><path style="opacity:1" fill="#ededed" d="M 344.5,366.5 C 345.479,369.625 345.813,372.958 345.5,376.5C 344.127,376.657 342.793,376.49 341.5,376C 342.885,372.961 343.885,369.794 344.5,366.5 Z"/></g>
<g><path style="opacity:1" fill="#dbdbdb" d="M 241.5,364.5 C 242.483,368.298 242.817,372.298 242.5,376.5C 241.167,376.5 239.833,376.5 238.5,376.5C 239.188,372.416 240.188,368.416 241.5,364.5 Z"/></g>
<g><path style="opacity:1" fill="#070707" d="M 736.5,383.5 C 738.833,383.5 741.167,383.5 743.5,383.5C 743.167,385.5 742.833,387.5 742.5,389.5C 740.143,389.663 737.81,389.497 735.5,389C 736.406,387.301 736.739,385.467 736.5,383.5 Z"/></g>
<g><path style="opacity:1" fill="#a9a9a9" d="M 320.5,389.5 C 317.713,390.477 314.713,390.81 311.5,390.5C 311.806,387.615 311.473,384.948 310.5,382.5C 310.892,380.821 311.392,379.154 312,377.5C 312.499,381.486 312.666,385.486 312.5,389.5C 315.167,389.5 317.833,389.5 320.5,389.5 Z"/></g>
<g><path style="opacity:0.574" fill="#121a15" d="M 245.5,408.5 C 246.209,407.596 247.209,407.263 248.5,407.5C 252.881,411.024 257.881,413.524 263.5,415C 271.159,415.5 278.826,415.666 286.5,415.5C 297.5,415.5 308.5,415.5 319.5,415.5C 321.833,415.5 324.167,415.5 326.5,415.5C 339.167,415.5 351.833,415.5 364.5,415.5C 364.5,412.833 364.5,410.167 364.5,407.5C 365.492,407.328 366.158,407.662 366.5,408.5C 366.5,411.5 366.5,414.5 366.5,417.5C 332.832,417.667 299.165,417.5 265.5,417C 258.209,415.518 251.542,412.685 245.5,408.5 Z"/></g>
<g><path style="opacity:1" fill="#d4e9dd" d="M 248.5,407.5 C 258.5,407.5 268.5,407.5 278.5,407.5C 280.116,408.989 282.116,409.989 284.5,410.5C 285.456,412.075 286.123,413.742 286.5,415.5C 278.826,415.666 271.159,415.5 263.5,415C 257.881,413.524 252.881,411.024 248.5,407.5 Z"/></g>
<g><path style="opacity:1" fill="#a2d5b8" d="M 278.5,407.5 C 292.833,407.5 307.167,407.5 321.5,407.5C 317.688,408.324 313.688,408.824 309.5,409C 311.577,409.192 313.577,409.692 315.5,410.5C 316.16,412.815 317.493,414.481 319.5,415.5C 308.5,415.5 297.5,415.5 286.5,415.5C 286.123,413.742 285.456,412.075 284.5,410.5C 282.116,409.989 280.116,408.989 278.5,407.5 Z"/></g>
<g><path style="opacity:1" fill="#69b88b" d="M 321.5,407.5 C 328.5,407.5 335.5,407.5 342.5,407.5C 341.026,408.675 339.36,409.675 337.5,410.5C 338.246,411.736 338.579,413.07 338.5,414.5C 334.298,414.183 330.298,414.517 326.5,415.5C 324.167,415.5 321.833,415.5 319.5,415.5C 317.493,414.481 316.16,412.815 315.5,410.5C 313.577,409.692 311.577,409.192 309.5,409C 313.688,408.824 317.688,408.324 321.5,407.5 Z"/></g>
<g><path style="opacity:1" fill="#40a76c" d="M 342.5,407.5 C 349.833,407.5 357.167,407.5 364.5,407.5C 364.5,410.167 364.5,412.833 364.5,415.5C 351.833,415.5 339.167,415.5 326.5,415.5C 330.298,414.517 334.298,414.183 338.5,414.5C 338.579,413.07 338.246,411.736 337.5,410.5C 339.36,409.675 341.026,408.675 342.5,407.5 Z"/></g>
<g><path style="opacity:0.54" fill="#090d0b" d="M 429.5,408.5 C 430.209,407.596 431.209,407.263 432.5,407.5C 439.475,420.111 446.975,432.444 455,444.5C 455.171,436.989 455.671,429.655 456.5,422.5C 459.5,422.5 462.5,422.5 465.5,422.5C 478.99,423.496 492.656,423.829 506.5,423.5C 518.021,425.112 528.687,422.946 538.5,417C 541.754,414.253 544.42,411.086 546.5,407.5C 547.492,407.328 548.158,407.662 548.5,408.5C 542.856,417.293 534.856,422.793 524.5,425C 502.165,425.325 479.832,425.158 457.5,424.5C 457.5,432.5 457.5,440.5 457.5,448.5C 455.408,448.439 453.908,447.439 453,445.5C 445.642,432.764 437.808,420.431 429.5,408.5 Z"/></g>
<g><path style="opacity:1" fill="#c9e5d5" d="M 432.5,407.5 C 441.167,407.5 449.833,407.5 458.5,407.5C 459.78,408.931 461.447,409.598 463.5,409.5C 463.858,412.898 463.192,416.065 461.5,419C 461.645,419.772 461.978,420.439 462.5,421C 460.292,421.191 458.292,421.691 456.5,422.5C 455.671,429.655 455.171,436.989 455,444.5C 446.975,432.444 439.475,420.111 432.5,407.5 Z"/></g>
<g><path style="opacity:1" fill="#9ad0b1" d="M 458.5,407.5 C 465.833,407.5 473.167,407.5 480.5,407.5C 482.961,408.531 485.627,409.198 488.5,409.5C 488.216,413.85 487.216,418.017 485.5,422C 478.842,422.5 472.175,422.666 465.5,422.5C 462.5,422.5 459.5,422.5 456.5,422.5C 458.292,421.691 460.292,421.191 462.5,421C 461.978,420.439 461.645,419.772 461.5,419C 463.192,416.065 463.858,412.898 463.5,409.5C 461.447,409.598 459.78,408.931 458.5,407.5 Z"/></g>
<g><path style="opacity:1" fill="#6ab48a" d="M 480.5,407.5 C 488.5,407.5 496.5,407.5 504.5,407.5C 507.214,408.958 510.214,409.958 513.5,410.5C 512.248,413.762 511.248,417.095 510.5,420.5C 511.376,421.251 512.376,421.751 513.5,422C 510.964,422.186 508.631,422.686 506.5,423.5C 492.656,423.829 478.99,423.496 465.5,422.5C 472.175,422.666 478.842,422.5 485.5,422C 487.216,418.017 488.216,413.85 488.5,409.5C 485.627,409.198 482.961,408.531 480.5,407.5 Z"/></g>
<g><path style="opacity:1" fill="#45a76f" d="M 504.5,407.5 C 518.5,407.5 532.5,407.5 546.5,407.5C 544.42,411.086 541.754,414.253 538.5,417C 528.687,422.946 518.021,425.112 506.5,423.5C 508.631,422.686 510.964,422.186 513.5,422C 512.376,421.751 511.376,421.251 510.5,420.5C 511.248,417.095 512.248,413.762 513.5,410.5C 510.214,409.958 507.214,408.958 504.5,407.5 Z"/></g>
</svg>
