<svg id="Layer_1" data-name="Layer 1" xmlns="http://www.w3.org/2000/svg" viewBox="0 0 240 56"><defs><style>.cls-1{fill:#1072c4;fill-rule:evenodd;}</style></defs><g id="Group_1147" data-name="Group 1147"><g id="Group_3" data-name="Group 3"><path id="Path_1" data-name="Path 1" class="cls-1" d="M32.37,1A6.54,6.54,0,0,1,39,7.49a6.65,6.65,0,0,1-13.3,0A6.58,6.58,0,0,1,32.37,1Z"/><path id="Path_2" data-name="Path 2" class="cls-1" d="M23.94,15.56a5.31,5.31,0,1,1-5.51,5.31A5.39,5.39,0,0,1,23.94,15.56Z"/><path id="Path_3" data-name="Path 3" class="cls-1" d="M41,15.56a5.31,5.31,0,1,1-5.5,5.31A5.39,5.39,0,0,1,41,15.56Z"/><path id="Path_4" data-name="Path 4" class="cls-1" d="M16.15,28.22a3.95,3.95,0,1,1-4.1,3.94A4,4,0,0,1,16.15,28.22Z"/><path id="Path_5" data-name="Path 5" class="cls-1" d="M32.43,28.22a3.95,3.95,0,1,1-4.09,3.94A4,4,0,0,1,32.43,28.22Z"/><path id="Path_6" data-name="Path 6" class="cls-1" d="M49.18,28.22a3.95,3.95,0,1,1-4.1,3.94A4,4,0,0,1,49.18,28.22Z"/><g id="Group_1" data-name="Group 1"><path id="Path_7" data-name="Path 7" class="cls-1" d="M9.1,39.35a2.79,2.79,0,1,1-2.79,2.87v-.09A2.79,2.79,0,0,1,9.1,39.35Z"/><path id="Path_8" data-name="Path 8" class="cls-1" d="M24.61,39.35a2.79,2.79,0,1,1-2.79,2.87v-.09a2.79,2.79,0,0,1,2.79-2.78Z"/><path id="Path_9" data-name="Path 9" class="cls-1" d="M40.51,39.35a2.79,2.79,0,1,1-2.79,2.87v-.09a2.78,2.78,0,0,1,2.79-2.78Z"/><path id="Path_10" data-name="Path 10" class="cls-1" d="M56.18,39.35a2.79,2.79,0,1,1-2.79,2.87v-.09a2.78,2.78,0,0,1,2.79-2.78Z"/></g><g id="Group_2" data-name="Group 2"><path id="Path_11" data-name="Path 11" class="cls-1" d="M2.71,49.69a1.65,1.65,0,1,1,0,3.29,1.65,1.65,0,1,1,0-3.29Z"/><path id="Path_12" data-name="Path 12" class="cls-1" d="M17.55,49.69a1.65,1.65,0,1,1-1.71,1.64A1.66,1.66,0,0,1,17.55,49.69Z"/><path id="Path_13" data-name="Path 13" class="cls-1" d="M32.59,49.69a1.66,1.66,0,0,1,1.69,1.65,1.7,1.7,0,1,1-1.69-1.65Z"/><path id="Path_14" data-name="Path 14" class="cls-1" d="M47.68,49.69a1.66,1.66,0,0,1,1.68,1.65,1.7,1.7,0,1,1-1.68-1.65Z"/><path id="Path_15" data-name="Path 15" class="cls-1" d="M62.72,49.69a1.66,1.66,0,0,1,1.69,1.65,1.7,1.7,0,1,1-1.69-1.65Z"/></g></g><g id="Group_8" data-name="Group 8"><path d="M95.29,22.94l-.15-.17-.75,0v-.13H87.45v2.49h4.46C92,26,92,27,92,28l0,2.16a8.71,8.71,0,0,1-2.91.48c-4.56,0-7-3.07-7-7.8a10,10,0,0,1,1.55-5.75,6.16,6.16,0,0,1,5.24-2.52A8.77,8.77,0,0,1,94,16.31l.22-.06c.12-1.32.17-1.78.32-2.78l-.15-.2A13,13,0,0,0,88.66,12a9.4,9.4,0,0,0-7.36,3,11.6,11.6,0,0,0-2.69,7.79,10.83,10.83,0,0,0,2.49,7.32c2.1,2.29,5.16,3,7.93,3A15.39,15.39,0,0,0,95,32l.17-.2c0-.86,0-1.37,0-2.55C95.15,27.51,95.17,25.21,95.29,22.94Z"/><path id="Path_17" data-name="Path 17" d="M111,27.89a6.79,6.79,0,0,1-1.84,3.43,6.63,6.63,0,0,1-4.9,1.73,6.85,6.85,0,0,1-5.07-1.9c-1.92-2-2-4.85-2-5.79s0-3.85,2-5.75a7.08,7.08,0,0,1,5.27-2,6.63,6.63,0,0,1,5.06,2.05,8.38,8.38,0,0,1,1.73,5.47A12.74,12.74,0,0,1,111,27.89Zm-3.66-6.5a3.29,3.29,0,0,0-3-1.61,3.48,3.48,0,0,0-3.11,1.64,7.55,7.55,0,0,0-.85,4c0,1.13,0,4,2.27,5.13a3.84,3.84,0,0,0,1.67.37,3.45,3.45,0,0,0,3.23-1.9,8.88,8.88,0,0,0,.65-3.77,8.91,8.91,0,0,0-.83-3.86Z"/><path id="Path_18" data-name="Path 18" d="M116.86,32.7c-1.36,0-1.64.06-3,.11l-.15-.19c.06-1.94.15-4.39.15-9.63,0-3.77,0-7.81-.29-11.3l.14-.17c1.39-.22,1.67-.27,3.09-.57l.17.19c-.2,3.58-.2,7.18-.2,10.76,0,6,.09,8.05.23,10.64Z"/><path id="Path_19" data-name="Path 19" d="M129.65,11.77c1.45-.24,1.73-.3,3-.57l.2.17c-.2,3.75-.22,10.44-.22,13.14,0,4.19.11,6.19.22,8.05l-.14.19c-1.24,0-1.59,0-2.89.08l-.19-.16.05-1a6.16,6.16,0,0,1-3.9,1.35c-3.77,0-6.37-2.84-6.37-6.94a7.32,7.32,0,0,1,2.49-5.8,9.27,9.27,0,0,1,6.23-1.87c.59,0,.87,0,1.64.06a57.21,57.21,0,0,0-.26-6.54Zm0,8.88c-.48,0-.82-.08-1.41-.08a6.1,6.1,0,0,0-4.11,1.27,5.49,5.49,0,0,0-1.64,4.24,5,5,0,0,0,1,3.32,3.78,3.78,0,0,0,2.91,1.21,4.78,4.78,0,0,0,3.17-1.18c.06-3.54.06-4.35,0-8.78Z"/><path id="Path_20" data-name="Path 20" d="M147.71,29.21a25.47,25.47,0,0,0-.22,2.57l-.17.2a9.15,9.15,0,0,1-4.53,1.1c-4.64,0-7.56-2.71-7.56-7.73,0-5.36,3.17-8,6.88-8a5.85,5.85,0,0,1,4.64,2c1.62,2,1.56,4.81,1.53,6.08l-.2.17c-4.41,0-5.18,0-9.82,0a5.65,5.65,0,0,0,1.08,3.6A4.54,4.54,0,0,0,143,30.77a6.46,6.46,0,0,0,4.5-1.7Zm-2.63-7.52A3.16,3.16,0,0,0,142,19.44c-1.59,0-3.46,1.1-3.74,4,3.43,0,4.5,0,7.1,0a6.17,6.17,0,0,0-.28-1.7Z"/><path id="Path_21" data-name="Path 21" d="M163.14,32.7c-1.35,0-1.52,0-2.83.11l-.2-.2c0-.32,0-.65,0-1,0-1.43,0-2.86,0-4.29,0-4.49,0-4.79-.17-5.4a2.49,2.49,0,0,0-2.55-2.22,6,6,0,0,0-3.76,1.64c0,5.08,0,7.73.22,11.15l-.17.17c-1.38,0-1.61,0-3,.12l-.14-.2c0-1.64.09-3.21.09-5.37,0-4.67-.2-7.16-.34-9.11l.17-.21c1.41-.26,1.67-.32,3-.58l.2.2,0,1.52a8.45,8.45,0,0,1,5-1.81,4.69,4.69,0,0,1,2.35.56,3.87,3.87,0,0,1,1.64,1.89,9.37,9.37,0,0,1,.43,3.57v3.41c.08,3.42.11,4.73.19,5.84Z"/><path id="Path_22" data-name="Path 22" d="M184.2,21.05c2.07.93,4.82,2.16,4.82,5.89,0,3.27-2.35,6.22-7.28,6.22a11.9,11.9,0,0,1-5.6-1.28l-.12-.21c.12-1,.14-1.57.23-2.68l.28-.12a8.22,8.22,0,0,0,5,1.72c2.91,0,4.13-1.54,4.13-3.29,0-2.05-1.64-2.84-3.48-3.57l-1.42-.64c-2-1-4.7-2.22-4.7-5.78a5.48,5.48,0,0,1,.88-3.06c1.3-1.93,3.65-2.57,5.94-2.57a14.49,14.49,0,0,1,5.1.93l.14.23c-.11,1.11-.14,1.52-.23,2.57l-.22.12A9.14,9.14,0,0,0,183,14.19c-2.35,0-3.82,1.14-3.82,2.86a2.59,2.59,0,0,0,1.44,2.3,15.67,15.67,0,0,0,2.18,1.06Z"/><path id="Path_23" data-name="Path 23" d="M199.6,30.42c-.09,1-.09,1.17-.12,2l-.16.18a9.47,9.47,0,0,1-2.37.26c-.76,0-2.76,0-3.73-1.52-.57-.84-.57-1.54-.57-5l.06-6.42c-1.11,0-1.14,0-2.28.06l-.12-.18c.06-.93.06-1.17.06-2.1l.19-.18c.69,0,1.11,0,2.15,0,0-.61,0-1.25,0-1.87s-.06-1.11-.1-1.66l.16-.21c1.42-.32,1.77-.41,3.23-.81l.22.14c-.1,1.93-.13,2.31-.13,4.44,1.33,0,1.71,0,3.51-.09l.16.18a17.92,17.92,0,0,0-.09,2.07l-.16.18c-1.58,0-1.77-.06-3.45-.06L196,25.28c0,.35,0,2,0,2.42,0,2.13.28,2.8,1.86,2.8a4.58,4.58,0,0,0,1.52-.26Z"/><path id="Path_24" data-name="Path 24" d="M212.84,26.71a57,57,0,0,0,.17,5.84l-.14.15c-1.33,0-1.56,0-2.86.11l-.11-.17,0-1.05a6,6,0,0,1-4,1.48,4.63,4.63,0,0,1-4.81-4.87c0-3.91,3.17-5.17,8.27-5.78l.48-.06a3.75,3.75,0,0,0-.25-1.81,2.44,2.44,0,0,0-2.35-1.08A9.92,9.92,0,0,0,203,20.58l-.22-.14c0-1.35,0-1.52.08-2.13l.17-.18a14.14,14.14,0,0,1,4.9-1c2.09,0,4.13.73,4.73,3a21.23,21.23,0,0,1,.2,3.65Zm-3.17-2.13c-2.86.44-5.52.85-5.52,3.44a2.55,2.55,0,0,0,2.69,2.66,4.37,4.37,0,0,0,3.09-1.28V24.52Z"/><path id="Path_25" data-name="Path 25" d="M224.25,30.42c-.09,1-.09,1.17-.13,2l-.15.18a9.54,9.54,0,0,1-2.38.26c-.76,0-2.75,0-3.73-1.52-.57-.84-.57-1.54-.57-5l.07-6.42c-1.11,0-1.14,0-2.28.06l-.13-.18c.07-.93.07-1.17.07-2.1l.19-.18c.69,0,1.1,0,2.15,0,0-.61,0-1.25,0-1.87s-.07-1.11-.1-1.66l.16-.21c1.42-.32,1.77-.41,3.23-.81l.22.14c-.1,1.93-.13,2.31-.13,4.44,1.33,0,1.71,0,3.51-.09l.16.18a20.49,20.49,0,0,0-.1,2.07l-.15.18c-1.58,0-1.78-.06-3.45-.06l-.07,5.43c0,.35,0,2,0,2.42,0,2.13.28,2.8,1.86,2.8a4.62,4.62,0,0,0,1.52-.26Z"/><path id="Path_26" data-name="Path 26" d="M238.42,29.16a26.05,26.05,0,0,0-.22,2.6L238,32a9.16,9.16,0,0,1-4.53,1.11c-4.65,0-7.56-2.75-7.56-7.83,0-5.43,3.17-8.08,6.88-8.08a5.81,5.81,0,0,1,4.64,2c1.62,2,1.56,4.87,1.53,6.16l-.2.17c-4.41,0-5.18,0-9.82,0a5.8,5.8,0,0,0,1.08,3.65,4.5,4.5,0,0,0,3.65,1.58A6.44,6.44,0,0,0,238.2,29Zm-2.63-7.62a3.16,3.16,0,0,0-3.09-2.27c-1.58,0-3.45,1.11-3.73,4,3.42,0,4.5,0,7.1,0a6.32,6.32,0,0,0-.28-1.73Z"/><path id="Path_27" data-name="Path 27" d="M88.67,51.65c-1,0-1.09,0-2,0l-.1-.09c-.22-1.36-.31-1.75-.5-2.74L84.91,43l-1.16,5.52c-.07.37-.14.75-.22,1.11-.11.58-.32,1.57-.38,1.9l-.08.1c-1,0-1.06,0-2,0l-.1-.1c-.25-1.22-1.41-6.35-2.16-9.41l.07-.1c.78,0,.9,0,1.59,0l.08.1c.09.47.17.91.3,1.58l.33,1.8,1,5.18,1.18-6c.19-1,.22-1.16.47-2.52l.09-.1c1.06,0,1.24,0,2.22,0l.08.1c0,.1,0,.21.05.33,0,.36.37,2.09.46,2.55l1.1,5.72,1.09-5.35c.52-2.62.53-2.67.6-3.21l.09-.1c.64,0,.78,0,1.37,0l.07.1c-.33,1.05-.41,1.42-1.18,4.71-.35,1.48-.73,2.94-1,4.41l-.06.29Z"/><path id="Path_28" data-name="Path 28" d="M102.4,48.86a22.24,22.24,0,0,0,.08,2.71l-.07.07c-.66,0-.77,0-1.41,0l0-.08v-.49a3,3,0,0,1-2,.69,2.22,2.22,0,0,1-2.37-2.05.74.74,0,0,1,0-.21c0-1.81,1.56-2.4,4.08-2.68l.23,0a1.63,1.63,0,0,0-.12-.84,1.24,1.24,0,0,0-1.16-.5,5.07,5.07,0,0,0-2.13.52L97.42,46c0-.63,0-.71,0-1l.09-.08a7.11,7.11,0,0,1,2.42-.45,2.15,2.15,0,0,1,2.33,1.4,8.67,8.67,0,0,1,.1,1.69Zm-1.57-1c-1.41.2-2.72.39-2.72,1.59a1.21,1.21,0,0,0,1.19,1.24h.13a2.21,2.21,0,0,0,1.53-.59V47.85Z"/><path id="Path_29" data-name="Path 29" d="M113.17,50.58c0,.45,0,.55-.06.94l-.06.08a3.77,3.77,0,0,1-1,.12,1.83,1.83,0,0,1-1.65-.7c-.25-.4-.25-.72-.25-2.32l0-3c-.48,0-.5,0-1,0l-.06-.08c0-.44,0-.55,0-1l.08-.08h1c0-.29,0-.58,0-.87s0-.51,0-.77l.07-.09c.63-.15.78-.19,1.43-.38l.09.06c0,.9,0,1.07,0,2.06l1.55,0,.07.08a9.17,9.17,0,0,0,0,1l-.07.08c-.7,0-.78,0-1.52,0l0,2.52c0,.16,0,.93,0,1.12,0,1,.13,1.3.83,1.3a2,2,0,0,0,.67-.12Z"/><path id="Path_30" data-name="Path 30" d="M125.78,50c-.07.54-.09.68-.12,1.21l-.08.09a4.69,4.69,0,0,1-2.24.51c-2.29,0-3.73-1.27-3.73-3.63,0-2.52,1.57-3.75,3.4-3.75a3,3,0,0,1,2.29.94,4.22,4.22,0,0,1,.76,2.85l-.1.09c-2.18,0-2.56,0-4.85,0a2.6,2.6,0,0,0,.53,1.69,2.32,2.32,0,0,0,1.8.73,3.85,3.85,0,0,0,1.22-.2,3.6,3.6,0,0,0,1-.6Zm-1.3-3.53A1.56,1.56,0,0,0,123,45.41a1.87,1.87,0,0,0-1.84,1.87c1.69,0,2.22,0,3.51,0a3,3,0,0,0-.14-.8Z"/><path id="Path_31" data-name="Path 31" d="M136.44,46a1.38,1.38,0,0,0-.56-.12,1.12,1.12,0,0,0-.59.17c-.57.4-.57,1-.57,2.4s0,2.33.1,3.09l-.07.09c-.66,0-.81,0-1.48,0l-.07-.08c0-1,0-2,0-3.22a27.45,27.45,0,0,0-.12-3.51l.08-.1,1.46-.27.08.09-.07,1.15a1.72,1.72,0,0,1,1.7-1.3,1.33,1.33,0,0,1,.4,0l.05.08c-.14.65-.17.79-.26,1.38Z"/><path id="Path_32" data-name="Path 32" d="M159.15,49.82c-.06.64-.07.83-.1,1.35l-.08.09a5.78,5.78,0,0,1-2.65.6c-3.06,0-4.86-2-4.86-5a5.16,5.16,0,0,1,1.27-3.59,4.83,4.83,0,0,1,3.69-1.39,7,7,0,0,1,2.56.43l.05.11c-.07.49-.08.62-.12,1.2l-.13.06a3.94,3.94,0,0,0-2.22-.61c-2.24,0-3.45,1.49-3.45,3.76,0,2.56,1.44,3.75,3.36,3.75a4.31,4.31,0,0,0,2.58-.82Z"/><path id="Path_33" data-name="Path 33" d="M171.7,49.34a3.23,3.23,0,0,1-.91,1.64,3.33,3.33,0,0,1-2.42.82,3.38,3.38,0,0,1-2.5-.91,4.4,4.4,0,0,1,0-5.51,3.57,3.57,0,0,1,2.6-1,3.35,3.35,0,0,1,2.5,1,4,4,0,0,1,.85,2.62A5.76,5.76,0,0,1,171.7,49.34Zm-1.81-3.1a1.61,1.61,0,0,0-1.49-.77,1.74,1.74,0,0,0-1.54.78,3.55,3.55,0,0,0-.42,1.91,2.57,2.57,0,0,0,1.12,2.45,2,2,0,0,0,.83.18,1.7,1.7,0,0,0,1.59-.91,4.11,4.11,0,0,0,.32-1.8,4,4,0,0,0-.41-1.84Z"/><path id="Path_34" data-name="Path 34" d="M178.19,44.79c.72-.11,1.09-.19,1.5-.27l.08.09,0,.69a4.11,4.11,0,0,1,2.36-.87,1.88,1.88,0,0,1,1.8,1,4.83,4.83,0,0,1,2.69-1,2.18,2.18,0,0,1,1.49.55c.66.61.67,1.12.67,2.29v1.15c0,1.54,0,1.92.09,3.14l-.09.09c-.67,0-.78,0-1.42,0l-.09-.08c0-1.12.05-2.35.05-3.45a7.11,7.11,0,0,0-.07-1.46A1.17,1.17,0,0,0,186,45.64a3,3,0,0,0-1.79.69c0,.29.06,1.26.06,1.65v.77c0,1.38,0,1.86.08,2.81l-.07.09c-.73,0-.81,0-1.47,0l-.08-.08c0-1.22.07-2.78.07-3.63a5.32,5.32,0,0,0-.1-1.38,1.13,1.13,0,0,0-1.17-1,3,3,0,0,0-1.76.7v2.31c0,1.51,0,2.17.09,2.93l-.08.09c-.73,0-.78,0-1.45,0l-.09-.08c0-.54.06-1.31.06-2.71a31.72,31.72,0,0,0-.16-4Z"/><path id="Path_35" data-name="Path 35" d="M197,45.17a3.16,3.16,0,0,1,2-.74,3.07,3.07,0,0,1,3,3.32c0,2.1-1.44,3.9-4.39,3.9l-.63,0c0,1.62,0,2,.11,3.25l-.08.08-1.47,0-.07-.08c0-.83,0-1.68,0-3.06,0-.8,0-1.6,0-2.4a39.05,39.05,0,0,0-.18-4.59l.07-.09c.68-.1.84-.14,1.46-.27l.1.09Zm.62,5.48a2.62,2.62,0,0,0,2.9-2.8c0-1.41-.77-2.28-1.89-2.28a2.8,2.8,0,0,0-1.6.57c0,.71,0,1.4,0,2.09s0,1.59,0,2.38c.18,0,.35,0,.59,0Z"/><path id="Path_36" data-name="Path 36" d="M213.8,48.86a24.46,24.46,0,0,0,.09,2.71l-.07.07c-.66,0-.77,0-1.41,0l-.06-.08,0-.49a3,3,0,0,1-2,.69A2.23,2.23,0,0,1,208,49.76v-.21c0-1.81,1.57-2.4,4.08-2.68l.24,0a1.64,1.64,0,0,0-.13-.84,1.22,1.22,0,0,0-1.16-.5,5,5,0,0,0-2.12.52l-.11-.07c0-.63,0-.71,0-1l.08-.08a7.15,7.15,0,0,1,2.42-.45,2.17,2.17,0,0,1,2.34,1.4,9.53,9.53,0,0,1,.09,1.69Zm-1.56-1c-1.41.2-2.73.39-2.73,1.59a1.22,1.22,0,0,0,1.19,1.24h.14a2.16,2.16,0,0,0,1.52-.59V47.85Z"/><path id="Path_37" data-name="Path 37" d="M226.73,51.64c-.67,0-.76,0-1.4,0l-.09-.09c0-.15,0-.3,0-.45,0-.66,0-1.33,0-2a11.8,11.8,0,0,0-.08-2.51,1.22,1.22,0,0,0-1.26-1,3.18,3.18,0,0,0-1.86.76c0,2.36,0,3.59.11,5.18l-.08.08c-.68,0-.79,0-1.47,0l-.07-.09c0-.76,0-1.5,0-2.5,0-2.16-.1-3.32-.17-4.22l.08-.1,1.48-.27.1.09v.71a4.31,4.31,0,0,1,2.46-.84,2.46,2.46,0,0,1,1.16.26,1.92,1.92,0,0,1,.81.88,4.2,4.2,0,0,1,.21,1.65v1.58c0,1.59.05,2.2.1,2.71Z"/><path id="Path_38" data-name="Path 38" d="M239,44.69c-.8,1.91-2.14,5.49-2.49,6.44a34.69,34.69,0,0,0-1.14,3.72l-.13.11c-.7,0-.82,0-1.48,0l-.06-.09.06-.1c.25-.5.46-1,.7-1.56s.43-.88.58-1.35a1.17,1.17,0,0,0,.05-.11c0-.16-2.09-5.62-2.69-7l.06-.13c.7,0,.84,0,1.55-.13l.08.08c.38,1.22.56,1.79.87,2.67l.88,2.59.79-2.39c.3-.93.65-2,.87-2.82l.1-.08H239Z"/></g></g></svg>